<?xml version="1.0" standalone="no"?>
<!DOCTYPE svg PUBLIC "-//W3C//DTD SVG 1.1//EN" "http://www.w3.org/Graphics/SVG/1.1/DTD/svg11.dtd" >
<svg xmlns="http://www.w3.org/2000/svg" xmlns:xlink="http://www.w3.org/1999/xlink" version="1.1">
<metadata>
Created by FontForge 20170924 at Sat Sep  5 19:32:51 2009
 By www-data
Typeface (c) (your company). 2009. All Rights Reserved
</metadata>
<defs>
<font id="NEWTETRIS" horiz-adv-x="1139" >
  <font-face 
    font-family="NEW TETRIS"
    font-weight="400"
    font-stretch="normal"
    units-per-em="2048"
    panose-1="2 0 0 0 0 0 0 0 0 0"
    ascent="1638"
    descent="-410"
    x-height="1854"
    cap-height="1837"
    bbox="68 -17 2100 2271"
    underline-thickness="150"
    underline-position="-292"
    unicode-range="U+0020-F005"
  />
<missing-glyph horiz-adv-x="1536" 
d="M256 0v1280h1024v-1280h-1024zM288 32h960v1216h-960v-1216z" />
    <glyph glyph-name=".notdef" horiz-adv-x="1536" 
d="M256 0v1280h1024v-1280h-1024zM288 32h960v1216h-960v-1216z" />
    <glyph glyph-name=".null" horiz-adv-x="0" 
 />
    <glyph glyph-name="nonmarkingreturn" horiz-adv-x="569" 
 />
    <glyph glyph-name="space" unicode=" " horiz-adv-x="569" 
 />
    <glyph glyph-name="space" unicode="&#xa0;" horiz-adv-x="569" 
 />
    <glyph glyph-name="exclam" unicode="!" horiz-adv-x="492" 
d="M142 1862h242q33 0 33 -34v-206q0 -23 -20 -34h-259q-34 0 -34 34v202q6 38 38 38zM133 1567h239q38 0 38 -34v-207q0 -33 -35 -33h-246q-33 0 -33 33v203q5 38 37 38zM134 1280h243q32 0 32 -34v-220q-10 -20 -32 -20h-256q-25 15 -25 38v198q5 38 38 38zM138 988h239
q38 -5 38 -38v-202q0 -38 -51 -38h-205q-48 0 -58 25v220q0 33 37 33zM142 693h235q38 -5 38 -38v-202q0 -34 -34 -34h-259l-22 22v218q0 34 42 34zM141 268h235q38 -5 38 -38v-202q0 -34 -34 -34h-259l-22 22v218q0 34 42 34z" />
    <glyph glyph-name="quotedbl" unicode="&#x22;" horiz-adv-x="1044" 
d="M133 1660h235q38 -5 38 -38v-202q0 -34 -34 -34h-260l-21 22v218q0 34 42 34zM542 1660h235q38 -5 38 -38v-202q0 -34 -34 -34h-260l-21 22v218q0 34 42 34z" />
    <glyph glyph-name="numbersign" unicode="#" 
 />
    <glyph glyph-name="dollar" unicode="$" 
 />
    <glyph glyph-name="percent" unicode="%" horiz-adv-x="1821" 
 />
    <glyph glyph-name="ampersand" unicode="&#x26;" horiz-adv-x="1366" 
 />
    <glyph glyph-name="quotesingle" unicode="'" horiz-adv-x="391" 
 />
    <glyph glyph-name="parenleft" unicode="(" horiz-adv-x="1401" 
d="M563 1859h295q45 -7 45 -48v-251q0 -54 -86 -54h-163q-132 0 -132 32l-5 49v208q0 64 46 64zM964 1859h295q41 0 41 -43v-262q0 -48 -81 -48h-239q-61 0 -61 48v257q6 48 45 48zM166 1480h285q46 -7 46 -48v-252q0 -48 -41 -48h-315q-31 17 -31 59v225q0 64 56 64z
M156 1100h295q46 -7 46 -48v-251q0 -29 -31 -48h-310q-46 0 -46 59v224q0 64 46 64zM151 726h290q28 0 45 -32v-272q0 -48 -71 -48h-249q-61 0 -61 48v256q7 48 46 48zM547 352h290q46 0 46 -42v-278l-25 -27h-316q-40 0 -40 53v246q6 48 45 48zM944 352h295q46 -7 46 -48
v-251q0 -48 -41 -48h-315q-31 17 -31 59v224q0 64 46 64z" />
    <glyph glyph-name="parenright" unicode=")" horiz-adv-x="1406" 
d="M139 1862h297q41 0 41 -43v-263q0 -48 -82 -48h-241q-61 0 -61 48v258q7 48 46 48zM538 1862h297q46 -7 46 -48v-252q0 -54 -76 -54h-236q-77 0 -77 64v226q0 64 46 64zM958 1481h287q46 0 46 -59v-241q0 -49 -41 -49h-317q-31 17 -31 59v226q0 64 56 64zM948 1100h297
q46 -7 46 -48v-252q0 -30 -31 -49h-312q-46 0 -46 59v226q0 64 46 64zM958 724h292q46 0 46 -43v-262q0 -49 -72 -49h-251q-61 0 -61 49v257q7 48 46 48zM165 349h286q46 -7 46 -49v-246q0 -54 -41 -54h-317q-31 13 -31 75v193q0 81 57 81zM559 349h292q28 0 46 -32v-274
q0 -29 -26 -43h-317q-41 0 -41 43v257q6 49 46 49z" />
    <glyph glyph-name="asterisk" unicode="*" horiz-adv-x="797" 
 />
    <glyph glyph-name="plus" unicode="+" horiz-adv-x="1204" 
d="M142 1261h235q38 -5 38 -38v-202q0 -34 -34 -34h-260l-21 22v218q0 34 42 34zM469 1261h235q38 -5 38 -38v-202q0 -34 -34 -34h-260l-21 22v218q0 34 42 34zM793 1261h235q38 -5 38 -38v-202q0 -34 -34 -34h-260l-21 22v218q0 34 42 34zM461 1543h235q38 -5 38 -38v-202
q0 -34 -34 -34h-260l-21 22v218q0 34 42 34zM482 975h235q38 -5 38 -38v-202q0 -34 -34 -34h-260l-21 22v218q0 34 42 34z" />
    <glyph glyph-name="comma" unicode="," horiz-adv-x="602" 
d="M159 1136h316q49 -7 49 -48v-251q0 -48 -44 -48h-338q-32 17 -32 59v224q0 64 49 64zM88 783h79q12 -2 12 -13v-68q0 -13 -11 -13h-84q-8 5 -8 16v60q0 18 12 18z" />
    <glyph glyph-name="hyphen" unicode="-" horiz-adv-x="1309" 
d="M392 1009q59 0 59 -44v-238q-7 -45 -45 -45h-284q-43 0 -43 60v193q0 74 68 74h245zM504 1004h274q48 0 48 -39v-258l-23 -25h-304q-39 0 -39 40v238q6 44 44 44zM881 1004h293q29 -12 29 -39v-258l-24 -25h-303q-40 0 -40 40v238q7 44 45 44z" />
    <glyph glyph-name="hyphen" unicode="&#xad;" horiz-adv-x="1309" 
d="M392 1009q59 0 59 -44v-238q-7 -45 -45 -45h-284q-43 0 -43 60v193q0 74 68 74h245zM504 1004h274q48 0 48 -39v-258l-23 -25h-304q-39 0 -39 40v238q6 44 44 44zM881 1004h293q29 -12 29 -39v-258l-24 -25h-303q-40 0 -40 40v238q7 44 45 44z" />
    <glyph glyph-name="period" unicode="." horiz-adv-x="602" 
d="M138 1039h316q49 -7 49 -48v-251q0 -48 -43 -48h-338q-33 17 -33 59v224q0 64 49 64z" />
    <glyph glyph-name="slash" unicode="/" horiz-adv-x="1906" 
d="M125 268h235q38 -5 38 -38v-202q0 -34 -34 -34h-260l-21 22v218q0 34 42 34zM398 541h235q38 -5 38 -38v-202q0 -34 -34 -34h-260l-21 22v218q0 34 42 34zM676 815h235q38 -5 38 -38v-202q0 -34 -34 -34h-260l-21 22v218q0 34 42 34zM958 1085h235q38 -5 38 -38v-202
q0 -34 -34 -34h-260l-21 22v218q0 34 42 34zM1223 1374h235q38 -5 38 -38v-202q0 -34 -34 -34h-260l-21 22v218q0 34 42 34zM1521 1665h235q38 -5 38 -38v-202q0 -34 -34 -34h-260l-21 22v218q0 34 42 34z" />
    <glyph glyph-name="zero" unicode="0" horiz-adv-x="1201" 
d="M149 1852h229q34 0 48 -35v-300q0 -47 -39 -47h-247q-39 7 -39 53v277q0 52 48 52zM477 1858h252q38 -7 38 -52v-278q0 -52 -73 -52h-182q-69 0 -69 52v283q0 47 34 47zM828 1858h229q52 0 52 -87v-254q-16 -41 -44 -41h-246q-39 7 -39 52v278q0 52 48 52zM841 1464h216
q52 0 52 -87v-254q-19 -40 -44 -40h-237q-48 0 -48 52v277q0 52 61 52zM153 1459h225q48 0 48 -53v-283q0 -46 -39 -46h-247q-39 7 -39 52v277q0 53 52 53zM832 1077h233q44 -8 44 -53v-277q0 -44 -44 -52h-242q-43 0 -43 70v242q0 70 52 70zM153 1071h234q43 0 43 -64v-254
q0 -64 -48 -64h-237q-44 0 -44 70v242q0 70 52 70zM490 1071h239q23 0 38 -35v-312q-13 -35 -47 -35h-217q-60 0 -60 52v278q0 52 47 52zM162 327h242q39 -6 39 -45v-238q0 -40 -35 -40h-268q-26 0 -26 119v130q0 74 48 74zM494 327h243q39 -6 39 -45v-228q0 -50 -34 -50
h-269q-26 12 -26 70v193q0 60 47 60zM819 327h251q39 -6 39 -45v-238q0 -40 -35 -40h-268q-26 16 -26 55v208q0 60 39 60z" />
    <glyph glyph-name="one" unicode="1" horiz-adv-x="699" 
d="M127 1859h192q26 0 26 -27v-166q0 -30 -53 -30h-155q-40 0 -40 30v163q4 30 30 30zM388 1859h192q26 0 26 -27v-166q0 -18 -16 -27h-205q-27 0 -27 27v163q5 30 30 30zM381 1623h189q30 0 30 -28v-166q0 -26 -27 -26h-195q-26 0 -26 26v163q4 31 29 31zM385 1379h192
q26 0 26 -27v-177q-8 -16 -26 -16h-202q-20 12 -20 30v159q4 31 30 31zM381 1141h189q30 -4 30 -30v-162q0 -31 -40 -31h-162q-38 0 -46 21v176q0 26 29 26zM381 905h186q30 -4 30 -31v-162q0 -27 -27 -27h-205l-17 17v176q0 27 33 27zM120 234h163q38 0 46 -21v-177
q0 -27 -30 -27h-189q-30 4 -30 31v163q0 31 40 31z" />
    <glyph glyph-name="two" unicode="2" horiz-adv-x="1000" 
d="M128 1860h196q30 -4 30 -30v-158q0 -34 -64 -34h-145l-3 3l-4 -3q-40 4 -40 34v151q0 37 30 37zM394 1860h196q30 -4 30 -30v-158q0 -34 -61 -34h-121q-71 0 -71 23l-3 27v132q0 40 30 40zM660 1860h195q26 0 31 -34v-148q0 -40 -41 -40v3l-3 -3h-121q-88 0 -88 20l-3 14
v158q4 30 30 30zM667 1614h188q31 -4 31 -30v-168q-9 -21 -27 -21h-209q-20 11 -20 38v148q0 33 37 33zM657 1382h195q27 0 27 -27v-81l3 -3l-3 -3v-88q-9 -17 -27 -17h-199q-26 0 -26 31v158q4 30 30 30zM388 1146h188q37 0 37 -53v-118q0 -51 -37 -51v4l-3 -4h-175
q-41 0 -41 34v158q5 30 31 30zM118 911h192q30 0 30 -27v-175l-16 -17h-209q-27 0 -27 27v161q4 31 30 31zM384 911h189q37 -2 37 -31l-4 -23v-121l4 -14q0 -17 -20 -30h-209q-27 0 -27 34v154q4 31 30 31zM653 911h189q30 -5 30 -31v-161q0 -27 -27 -27h-208q-21 8 -21 47
v131q0 41 37 41zM675 219h197q31 0 31 -26v-173l-18 -17h-213q-28 0 -28 27v159q4 30 31 30zM401 218h197q31 0 31 -26v-173l-18 -17h-213q-28 0 -28 27v159q4 30 31 30zM127 216h197q31 0 31 -26v-173l-18 -17h-213q-28 0 -28 27v159q4 30 31 30z" />
    <glyph glyph-name="three" unicode="3" horiz-adv-x="998" 
d="M125 1855h200q31 0 31 -37v-149q0 -30 -42 -33h-144q-76 0 -76 26v156q0 37 31 37zM397 1855h200q31 -4 31 -30v-156q0 -33 -62 -33h-114q-82 0 -82 19l-4 20v140q0 40 31 40zM670 1855h199q17 0 28 -17h3v-186q-20 -16 -75 -16h-118q-69 0 -69 29v160q5 30 32 30z
M670 1612h199l31 -13v-190q-6 0 -17 -13h-224q-21 11 -21 37v146q5 33 32 33zM121 1383h200q31 -5 31 -30v-156q0 -19 -20 -30h-221q-21 10 -21 36v140q0 40 31 40zM394 1383h200q31 -5 31 -30v-166q-9 -20 -28 -20h-203q-28 0 -28 26v163q0 27 28 27zM666 1383h200
q28 0 28 -27v-173q-9 -16 -28 -16h-203q-28 0 -28 30v156q5 30 31 30zM663 1150h196q31 -4 31 -30v-160q0 -30 -69 -30h-141q-52 0 -52 47v123q0 50 35 50zM111 917h197q31 0 31 -26v-173l-18 -17h-213q-28 0 -28 27v159q4 30 31 30zM383 917h193q38 -2 38 -30l-3 -23v-120
l3 -13q0 -17 -20 -30h-214q-28 0 -28 33v153q5 30 31 30zM659 917h193q31 -4 31 -30v-159q0 -27 -27 -27h-214q-21 8 -21 47v129q0 40 38 40zM675 219h197q31 0 31 -26v-173l-18 -17h-213q-28 0 -28 27v159q4 30 31 30zM401 218h197q31 0 31 -26v-173l-18 -17h-213
q-28 0 -28 27v159q4 30 31 30zM124 223h197q31 0 31 -26v-173l-18 -17h-213q-28 0 -28 27v159q4 30 31 30z" />
    <glyph glyph-name="four" unicode="4" horiz-adv-x="993" 
d="M117 1853h204q27 0 27 -27v-164q0 -31 -50 -31h-128q-74 0 -74 27v175zM849 1853q30 -4 30 -30v-161q0 -31 -51 -31h-147q-57 0 -57 37v78q0 107 20 107h205zM123 1615h192q30 0 30 -27v-165q0 -18 -17 -27h-208q-27 0 -27 27v161q4 31 30 31zM657 1608h192q30 0 30 -27
v-165q0 -18 -17 -26h-208q-27 0 -27 26v162q4 30 30 30zM123 1376h195q27 0 27 -27v-164q0 -27 -27 -27h-198q-27 0 -27 27v161q4 30 30 30zM389 1376h194q31 0 31 -40v-141q0 -37 -31 -37h-205q-20 12 -20 30v158q5 30 31 30zM650 1376h195q31 -4 31 -30v-158
q0 -18 -21 -30h-205q-30 0 -30 37v141q0 40 30 40zM647 1141h192q30 0 30 -27v-164q0 -13 -14 -27l-90 -4h-98l-13 4l-4 -4h-3q-30 7 -30 31v161q4 30 30 30zM637 909h188q34 0 34 -27v-174l-17 -17h-208q-27 0 -27 27v161q4 30 30 30zM399 216h197q31 0 31 -26v-173
l-18 -17h-213q-28 0 -28 27v159q4 30 31 30zM124 215h197q31 0 31 -26v-173l-18 -17h-213q-28 0 -28 27v159q4 30 31 30z" />
    <glyph glyph-name="five" unicode="5" horiz-adv-x="1002" 
d="M126 1858h201q32 0 32 -37v-150q0 -34 -52 -34h-143q-70 0 -70 30v154q0 37 32 37zM400 1858h202q32 -4 32 -30v-157q0 -34 -46 -34l-3 4l-18 -4h-139q-59 0 -59 37v144q0 40 31 40zM675 1858h202q28 0 28 -27v-164q0 -30 -59 -30h-143q-59 0 -59 30v161q4 30 31 30z
M122 1621h202q31 0 31 -37v-151q0 -18 -21 -30h-222q-21 11 -21 37v140q0 41 31 41zM122 1383h202q31 -4 31 -30v-157q0 -18 -21 -30h-222q-21 10 -21 37v140q0 40 31 40zM599 1383q31 -4 31 -30v-157q0 -18 -21 -30h-212q-31 0 -31 53v107q0 47 21 57h212zM672 1383h202
q27 0 27 -27v-163q0 -27 -27 -27h-206q-19 0 -28 20v177q13 20 32 20zM672 1149h188q38 0 38 -37v-150q0 -30 -38 -34v4l-4 -4h-111l-94 4q-17 16 -17 37v140q0 40 38 40zM108 918h199q31 0 31 -26v-164q0 -18 -18 -27h-226q-17 9 -17 27v160q5 30 31 30zM383 918h195
q35 0 35 -26v-174l-18 -17h-215q-28 0 -28 27v160q4 30 31 30zM654 918h202q31 0 31 -36v-151q0 -30 -27 -30h-216q-21 11 -21 37v147q5 33 31 33zM675 219h196q31 0 31 -26v-173l-17 -17h-214q-27 0 -27 27v159q4 30 31 30zM401 218h196q31 0 31 -26v-173l-17 -17h-214
q-27 0 -27 27v159q4 30 31 30zM127 216h196q31 0 31 -26v-173l-17 -17h-214q-27 0 -27 27v159q4 30 31 30z" />
    <glyph glyph-name="six" unicode="6" horiz-adv-x="1304" 
d="M145 1858h235q37 0 37 -37v-152q0 -33 -61 -33h-167q-81 0 -81 30v155q0 37 37 37zM465 1858h236q36 -4 36 -30v-159q0 -33 -53 -33l-4 3l-20 -3h-162q-69 0 -69 37v145q0 40 36 40zM786 1858h235q33 0 33 -27v-165q0 -30 -69 -30h-167q-69 0 -69 30v162q6 30 37 30z
M141 1619h235q37 0 37 -37v-152q0 -18 -25 -30h-259q-25 11 -25 37v142q0 40 37 40zM141 1380h235q37 -4 37 -30v-159q0 -18 -25 -30h-259q-25 11 -25 37v141q0 41 37 41zM697 1380q36 -4 36 -30v-159q0 -18 -24 -30h-248q-36 0 -36 54v108q0 46 24 57h248zM782 1380h235
q33 0 33 -27v-165q0 -27 -33 -27h-239q-22 0 -33 20v179q15 20 37 20zM137 1144h231q36 0 36 -27v-165q0 -30 -85 -30h-138q-81 0 -81 30v162q5 30 37 30zM782 1144h219q45 0 45 -37v-151q0 -31 -45 -34v3l-4 -3h-130l-110 3q-20 16 -20 37v142q0 40 45 40zM125 912h231
q36 0 36 -27v-165q0 -18 -20 -27h-264q-20 9 -20 27v162q5 30 37 30zM445 912h227q41 0 41 -27v-175l-20 -17h-252q-32 0 -32 27v162q5 30 36 30zM762 912h235q36 0 36 -37v-152q0 -30 -32 -30h-252q-24 11 -24 37v148q6 34 37 34zM675 219h197q31 0 31 -26v-173l-18 -17
h-213q-28 0 -28 27v159q4 30 31 30zM403 216h197q31 0 31 -26v-173l-18 -17h-213q-28 0 -28 27v159q4 30 31 30zM132 217h197q31 0 31 -26v-173l-18 -17h-213q-28 0 -28 27v159q4 30 31 30z" />
    <glyph glyph-name="seven" unicode="7" horiz-adv-x="1195" 
d="M130 1861h243q38 -5 38 -38v-197q0 -42 -80 -42h-146q-93 0 -93 34v197q0 46 38 46zM461 1861h243q38 -5 38 -38v-197q0 -42 -71 -42h-134q-109 0 -109 26l-5 37v164q0 50 38 50zM792 1861h243q20 0 34 -21h4v-235q-27 -21 -71 -21h-197q-50 0 -50 47v192q5 38 37 38z
M792 1555h243l38 -17v-239q-28 -21 -63 -21h-121l-114 5q-20 20 -20 46v184q5 42 37 42zM457 1266h256q25 -15 25 -38v-201q0 -33 -34 -33h-247q-34 0 -34 33v205q0 34 34 34zM122 973h239q37 0 37 -34v-218l-21 -21h-259q-34 0 -34 34v201q5 38 38 38zM675 219h197
q31 0 31 -26v-173l-18 -17h-213q-28 0 -28 27v159q4 30 31 30zM401 218h197q31 0 31 -26v-173l-18 -17h-213q-28 0 -28 27v159q4 30 31 30z" />
    <glyph glyph-name="eight" unicode="8" horiz-adv-x="1002" 
d="M125 1858h203q32 0 32 -37v-152q0 -34 -53 -34h-143q-70 0 -70 30v156q0 37 31 37zM402 1858h203q31 -4 31 -30v-159q0 -34 -63 -34h-143q-60 0 -60 37v145q0 41 32 41zM678 1858h203q32 0 32 -37v-146q0 -40 -56 -40h-151q-59 0 -59 34v159q4 30 31 30zM122 1618h203
q31 -4 31 -31v-158q0 -31 -28 -31h-217q-21 11 -21 37v142q0 41 32 41zM678 1611h203q32 -4 32 -30v-169q-9 -21 -28 -21h-217q-21 11 -21 38v148q4 34 31 34zM122 1378h203q31 -5 31 -31v-159q0 -18 -21 -30h-224q-21 11 -21 37v142q0 41 32 41zM391 1378h210q32 -5 32 -31
v-169q-9 -20 -28 -20h-207q-28 0 -28 27v166q0 18 21 27zM675 1378h203q28 0 28 -27v-78l3 -3l-3 -4v-81q0 -27 -28 -27h-207q-28 0 -28 30v159q5 31 32 31zM118 1141h200q31 0 31 -27v-166q0 -30 -59 -30h-133q-70 0 -70 30v163q4 30 31 30zM671 1141h200q31 -4 31 -30
v-169q0 -24 -77 -24h-122l-14 3l-4 -3h-3q-46 0 -46 51v121q0 51 35 51zM108 908h199q32 0 32 -27v-166q0 -18 -18 -27h-227q-18 9 -18 27v162q5 31 32 31zM384 908h203q28 0 28 -31h4l-4 -50v-95l4 -14q0 -16 -21 -30h-217q-28 0 -28 34v155q4 31 31 31zM657 908h203
q32 -5 32 -31v-155q0 -34 -28 -34h-217q-21 8 -21 47v122q0 51 31 51zM675 219h197q31 0 31 -26v-173l-18 -17h-213q-28 0 -28 27v159q4 30 31 30zM401 218h197q31 0 31 -26v-173l-18 -17h-213q-28 0 -28 27v159q4 30 31 30zM124 223h197q31 0 31 -26v-173l-18 -17h-213
q-28 0 -28 27v159q4 30 31 30z" />
    <glyph glyph-name="nine" unicode="9" horiz-adv-x="997" 
d="M112 1852h205q27 0 27 -27v-165q0 -30 -51 -30h-128q-74 0 -74 27v175zM387 1852h196q26 0 26 -27v-175q0 -18 -53 -20h-158q-41 0 -41 30v162q4 30 30 30zM650 1852h195q30 -4 30 -30v-162q0 -30 -50 -30h-148q-57 0 -57 37v145q0 40 30 40zM118 1613h192q30 0 30 -27
v-165q0 -18 -17 -27h-208q-27 0 -27 27v162q4 30 30 30zM653 1606h192q30 0 30 -26v-165q0 -19 -17 -27h-208q-27 0 -27 27v161q4 30 30 30zM118 1374h195q27 0 27 -27v-164q0 -27 -27 -27h-198q-27 0 -27 27v161q4 30 30 30zM384 1374h195q30 0 30 -40v-141q0 -37 -30 -37
h-205q-20 11 -20 30v158q4 30 30 30zM646 1374h196q30 -4 30 -30v-158q0 -19 -20 -30h-206q-30 0 -30 37v141q0 40 30 40zM643 1139h192q30 0 30 -27v-165q0 -12 -13 -27l-91 -3h-98l-13 3l-4 -3h-3q-30 6 -30 30v162q4 30 30 30zM633 907h188q34 0 34 -27v-175l-17 -17
h-208q-27 0 -27 27v161q4 31 30 31zM129 216h197q31 0 31 -26v-173l-18 -17h-213q-28 0 -28 27v159q4 30 31 30zM394 215h197q31 0 31 -26v-173l-18 -17h-213q-28 0 -28 27v159q4 30 31 30z" />
    <glyph glyph-name="colon" unicode=":" horiz-adv-x="602" 
d="M147 1034h316q49 -7 49 -48v-251q0 -48 -43 -48h-338q-33 17 -33 59v224q0 64 49 64zM155 1858h316q49 -7 49 -48v-251q0 -48 -43 -48h-338q-33 17 -33 59v224q0 64 49 64z" />
    <glyph glyph-name="semicolon" unicode=";" horiz-adv-x="606" 
d="M148 985h306q47 -6 47 -42v-218q0 -42 -43 -42h-326q-31 15 -31 51v195q0 56 47 56zM80 678h76q12 -2 12 -12v-59q0 -11 -11 -11h-81q-8 4 -8 14v52q0 16 12 16zM152 1859h305q47 -7 47 -49v-253q0 -49 -42 -49h-327q-31 17 -31 60v226q0 65 48 65z" />
    <glyph glyph-name="semicolon" unicode="&#x37e;" horiz-adv-x="606" 
d="M148 985h306q47 -6 47 -42v-218q0 -42 -43 -42h-326q-31 15 -31 51v195q0 56 47 56zM80 678h76q12 -2 12 -12v-59q0 -11 -11 -11h-81q-8 4 -8 14v52q0 16 12 16zM152 1859h305q47 -7 47 -49v-253q0 -49 -42 -49h-327q-31 17 -31 60v226q0 65 48 65z" />
    <glyph glyph-name="less" unicode="&#x3c;" horiz-adv-x="1196" 
 />
    <glyph glyph-name="equal" unicode="=" horiz-adv-x="1300" 
d="M401 617q59 0 59 -44v-238q-7 -45 -45 -45h-284q-43 0 -43 60v193q0 74 68 74h245zM513 612h274q48 0 48 -39v-258l-23 -25h-304q-39 0 -39 40v238q6 44 44 44zM890 612h293q29 -12 29 -39v-258l-24 -25h-303q-40 0 -40 40v238q7 44 45 44zM393 1118q59 0 59 -44v-238
q-7 -45 -45 -45h-284q-43 0 -43 60v193q0 74 68 74h245zM505 1113h274q48 0 48 -39v-258l-23 -25h-304q-39 0 -39 40v238q6 44 44 44zM882 1113h293q29 -12 29 -39v-258l-24 -25h-303q-40 0 -40 40v238q7 44 45 44z" />
    <glyph glyph-name="greater" unicode="&#x3e;" horiz-adv-x="1196" 
 />
    <glyph glyph-name="question" unicode="?" horiz-adv-x="1439" 
d="M132 1849h307q43 0 43 -42v-260q0 -48 -85 -48h-249q-64 0 -64 48v254q7 48 48 48zM551 1849h307q43 0 43 -42v-276q0 -29 -85 -32h-234q-79 0 -79 58v244q7 48 48 48zM964 1849h308q48 -7 48 -48v-254q0 -48 -80 -48h-233q-85 3 -85 32v276q0 42 42 42zM970 1462h302
q29 0 48 -32v-270q0 -43 -43 -43h-313q-42 0 -42 43v254q7 48 48 48zM545 1096h308q48 0 48 -64v-222q0 -59 -48 -59h-324q-31 19 -31 48v249q6 48 47 48zM959 1096h307q48 -7 48 -48v-249q0 -29 -32 -48h-339q-28 0 -32 85v180q0 80 48 80zM540 354h297q48 -7 48 -48v-255
q0 -42 -43 -42h-328l-27 27v286q12 32 53 32z" />
    <glyph glyph-name="at" unicode="@" horiz-adv-x="2079" 
 />
    <glyph glyph-name="A" unicode="A" horiz-adv-x="1380" 
d="M148 1849h272q28 0 45 -30v-268q-17 -29 -45 -29h-272q-55 0 -55 44v238q0 45 55 45zM520 1849h287q45 -6 45 -45v-238q0 -44 -60 -44h-218q-94 0 -94 39v248q0 40 40 40zM911 1849h288q31 0 50 -50v-238h-10q0 -39 -80 -39h-233q-59 0 -59 49v233q6 45 44 45zM549 1517
h248q55 0 55 -45v-253q-18 -30 -45 -30h-283q-44 7 -44 45v238q0 45 69 45zM926 1517h268q45 0 55 -60v-223q-20 -45 -55 -45h-273q-54 0 -54 50v228q0 50 59 50zM123 1512h302q45 0 45 -85v-163l-5 -20l5 -5v-5q-10 -45 -45 -45h-287q-45 7 -45 45v233q0 27 30 45z
M177 1179h209q84 0 84 -49v-228q-7 -50 -45 -50h-287q-45 0 -45 55v223q0 49 84 49zM916 1179h273q55 0 55 -44v-228q0 -55 -60 -55h-258q-59 0 -59 75v193q0 59 49 59zM802 669l5 -5l5 5q55 -4 55 -45v-243q0 -40 -50 -40h-278q-44 7 -44 45v238q0 45 104 45h203zM167 331
h243q58 0 70 -29v-258q0 -40 -50 -40h-277q-45 6 -45 45v238q0 44 59 44zM534 331h278q50 0 50 -39v-258q-12 -22 -40 -30l-35 5h-258q-39 0 -39 40v238q6 44 44 44zM926 326h278q45 -6 45 -44v-238q0 -40 -40 -40h-308q-29 16 -29 55v208q0 59 54 59z" />
    <glyph glyph-name="B" unicode="B" horiz-adv-x="1401" 
d="M154 1841h289q40 0 40 -40v-244q0 -45 -55 -45h-259q-60 0 -60 45v239q6 45 45 45zM159 1507h254q75 0 75 -70v-149q0 -110 -40 -110h-294q-45 7 -45 45v239q0 38 50 45zM543 1507h284q27 0 45 -30v-254q0 -45 -55 -45h-264q-55 0 -55 45v239q6 45 45 45zM941 1507h269
q60 -5 60 -60v-224q-16 -45 -65 -45h-259q-60 0 -60 50v224q0 55 55 55zM159 1168h269q60 0 60 -50v-229q0 -50 -55 -50h-269q-55 0 -55 50v229q7 50 50 50zM543 1168h279q55 0 55 -60v-94l-5 -150q-22 -25 -70 -25h-229q-75 0 -75 55v229q6 45 45 45zM941 1168h279
q45 -6 45 -45v-229q0 -55 -60 -55h-244q-75 0 -75 70v199q0 60 55 60zM179 316h264q39 0 55 -30v-259q0 -40 -50 -40h-279q-45 7 -45 45v239q0 45 55 45zM538 316h319q29 -12 29 -70v-199q0 -55 -44 -55h-294q-40 0 -40 45v234q0 27 30 45zM936 311h289q45 -7 45 -45v-239
q0 -40 -40 -40h-309q-30 12 -30 70v194q0 60 45 60z" />
    <glyph glyph-name="C" unicode="C" horiz-adv-x="1384" 
d="M147 1858h275q27 0 45 -30v-270q-18 -30 -45 -30h-285q-45 7 -45 45v240q0 45 55 45zM522 1858h289q45 -6 45 -45v-240q0 -45 -60 -45h-220q-94 0 -94 40v250q0 40 40 40zM916 1858h290q31 0 50 -50v-240q-10 0 -10 -15l-20 -20l-135 -5h-155l-5 5l-5 -5q-55 5 -55 50
v235q7 45 45 45zM147 1518h265q39 0 55 -30v-269q-16 -30 -55 -30h-265q-55 0 -55 45v239q0 45 55 45zM142 1184h275q55 0 55 -50v-225q0 -55 -55 -55h-265q-60 0 -60 50v220q0 60 50 60zM916 1184h275q55 0 55 -45v-240q0 -38 -50 -45h-270q-39 0 -55 30v270q18 30 45 30z
M522 1179h294q40 0 40 -45v-235q-6 -45 -45 -45h-289q-45 0 -45 75v190q0 60 45 60zM167 330h245q58 0 70 -30v-260q0 -40 -50 -40h-280q-45 6 -45 45v240q0 45 60 45zM537 325h289q45 -7 45 -45v-230q0 -50 -40 -50h-309q-30 12 -30 70v195q0 60 45 60zM931 325h280
q45 -7 45 -45v-240q0 -40 -40 -40h-310q-30 12 -30 70v195q0 60 55 60z" />
    <glyph glyph-name="D" unicode="D" horiz-adv-x="1355" 
d="M912 1854h290q45 -6 45 -45v-240q0 -45 -60 -45h-210q-105 0 -105 35v255q0 40 40 40zM538 1519h269q50 -6 50 -50v-224q0 -55 -55 -55h-274q-50 0 -50 60v209q0 60 60 60zM927 1519h265q55 0 55 -45v-239q-7 -45 -45 -45h-285q-27 0 -45 30v254q0 45 55 45zM133 1514
h295q40 0 40 -40v-254q-18 -30 -45 -30h-290q-40 0 -40 40v244q0 40 40 40zM133 1180h285q45 0 45 -40v-245q0 -27 -25 -40h-310q-40 0 -40 40v240q6 45 45 45zM518 1180h294q40 0 40 -40v-240q0 -27 -30 -45h-304q-40 0 -40 40v245q0 40 40 40zM897 1180h305q40 0 40 -40
v-245q0 -40 -40 -40h-305q-30 18 -30 45v230q0 39 30 50zM178 326h245q60 0 60 -45v-240q-7 -45 -45 -45h-290q-40 0 -40 40v260q12 30 70 30zM553 326l4 -5l25 5h165q120 0 120 -30v-260q0 -40 -40 -40h-289q-45 6 -45 45v250q15 35 60 35zM922 321h285q45 0 45 -40v-260
l-25 -25h-310q-40 0 -40 40v240q7 45 45 45z" />
    <glyph glyph-name="E" unicode="E" horiz-adv-x="1511" 
d="M128 1870h227q35 0 35 -40v-165q0 -37 -70 -37h-172l-4 4l-4 -4q-47 3 -47 45v157q0 40 35 40zM437 1870h227q35 -5 35 -33v-172q0 -37 -70 -37h-141q-82 0 -82 27l-4 29v143q0 43 35 43zM746 1870h227q31 0 31 -29v-190q0 -23 -94 -23h-94q-105 0 -105 27v182
q5 33 35 33zM1055 1870h227q31 0 31 -29v-179q0 -34 -62 -34h-184q-47 0 -47 34v175q5 33 35 33zM136 1607h219q35 -5 35 -33v-172q0 -28 -35 -36l-20 4h-187l-16 -4q-35 0 -39 43v154q0 44 43 44zM441 1438h219q35 -4 35 -32v-169q0 -39 -47 -39v3l-4 -3h-180l-15 3l-4 -3
q-30 0 -43 21v190q0 29 39 29zM742 1438h227q31 0 31 -29v-190q-9 -21 -55 -21h-191q-47 0 -47 32v176q5 32 35 32zM1051 1438h227q35 0 35 -61v-110l-4 -15l4 -4q0 -50 -59 -50h-179q-59 0 -59 36v172q5 32 35 32zM124 1350h227q35 -4 35 -32v-172q0 -33 -31 -33h-243
q-23 12 -23 40v154q0 43 35 43zM202 1092h125l4 -4l4 4q47 -6 47 -37v-164q0 -41 -35 -41h-227q-35 0 -35 41v156q0 41 43 41zM519 1092h114q58 0 58 -37v-172q-5 -33 -35 -33h-227q-30 0 -35 37v160q0 23 20 41zM766 1092h172q58 0 58 -34v-179q0 -29 -31 -29h-239l-23 22
v186q0 34 63 34zM1078 1092h173q54 0 54 -34v-179q0 -29 -31 -29h-227q-21 0 -35 22v186q0 34 66 34zM207 321h275q26 0 43 -29v-246q0 -26 -24 -38h-298q-39 0 -39 38v231q6 44 43 44zM573 321h274q43 0 43 -39v-236q0 -26 -24 -38h-312q-24 12 -24 38v231q6 44 43 44z
M948 321h274q27 0 44 -29v-246q0 -26 -25 -38h-298q-38 0 -38 38v246q17 29 43 29z" />
    <glyph glyph-name="F" unicode="F" horiz-adv-x="1288" 
d="M132 1858h264q36 0 36 -30v-179q0 -33 -76 -33h-184q-76 0 -76 33v187q12 22 36 22zM472 1858h273q36 0 36 -30v-179q0 -33 -76 -33h-126q-134 0 -134 23v197zM839 1858h259q25 0 36 -18v-194q0 -30 -45 -30v4l-4 -4h-233q-53 0 -53 44v161q6 37 40 37zM137 1594h255
q40 0 40 -29v-190q-14 -23 -49 -23v5l-5 -5l-22 5h-188l-27 -5q-45 7 -45 34v175q6 33 41 33zM132 1339h260q35 0 35 -30v-179q0 -20 -22 -30h-277q-36 0 -36 30v175q6 34 40 34zM700 1339q62 0 76 -23v-186q-6 -33 -40 -33h-250q-50 0 -50 43v143q0 56 63 56h201zM977 1339
q144 0 144 -23v-186q-6 -33 -41 -33h-250q-49 0 -49 43v154q0 45 71 45h125zM123 1075h260q35 0 35 -30v-190q-15 -22 -44 -22v3l-5 -3h-232q-54 0 -54 33v176q6 33 40 33zM448 315h267q43 -6 43 -43v-223q0 -34 -38 -48l-48 5h-247q-29 15 -29 52v191q0 66 52 66zM824 311
h267q43 -7 43 -43v-219q0 -48 -38 -48h-295q-29 11 -29 67v185q0 58 52 58z" />
    <glyph glyph-name="G" unicode="G" horiz-adv-x="1304" 
d="M141 328h234q55 0 66 -28v-248q0 -38 -38 -38h-276q-43 6 -43 43v228q0 43 57 43zM498 319h277q43 -7 43 -43v-219q0 -48 -38 -48h-296q-28 15 -28 52v200q0 58 42 58zM875 319h276q43 -7 43 -43v-219q0 -48 -38 -48h-295q-29 11 -29 67v185l5 5l-5 5v5q9 43 43 43z
M141 1867h276q39 0 39 -30v-189q0 -34 -81 -34h-196q-81 0 -81 34v196q17 23 43 23zM513 1867h276q38 0 38 -30v-189q0 -34 -81 -34h-133q-143 0 -143 23v207q17 23 43 23zM889 1867h276q26 0 39 -19v-204q0 -30 -48 -30v4l-5 -4h-152l-129 4q-24 18 -24 42v169q7 38 43 38z
M141 1591h272q43 0 43 -31v-199q-19 -23 -43 -23l-5 4h-5l-5 -4l-23 4h-200l-29 -4q-48 6 -48 34v184q6 35 43 35zM136 1322h277q38 0 38 -30v-199q-12 -20 -38 -20h-281q-26 0 -38 23v192q6 34 42 34zM1037 1322q152 0 152 -23v-195q-6 -35 -43 -35h-271q-48 0 -48 69v127
q0 57 67 57h143zM127 1046h276q38 0 38 -30v-200q-16 -23 -47 -23v4l-5 -4h-248q-57 0 -57 34v185q6 34 43 34zM503 1046h277q42 0 42 -65v-123q0 -65 -52 -65h-238q-72 0 -72 34v185q7 34 43 34zM875 1046h276q43 0 43 -58v-72l-5 -104q-20 -19 -66 -19h-196q-95 0 -95 27
v192q6 34 43 34z" />
    <glyph glyph-name="H" unicode="H" horiz-adv-x="1401" 
d="M146 1857h290q40 0 40 -40v-245q0 -45 -55 -45h-260q-60 0 -60 45v240q6 45 45 45zM936 1862h296q35 -15 35 -60v-230q-17 -40 -60 -40h-251q-70 0 -70 45v255q11 30 50 30zM931 1522h286q45 0 50 -60v-230q-15 -40 -70 -40h-241q-70 0 -70 45v255q18 30 45 30zM146 1517
h285q45 0 45 -40v-245q0 -45 -70 -45h-255q-50 7 -50 45v240q6 45 45 45zM536 1517h285q45 0 45 -40v-245q0 -45 -70 -45h-245q-60 0 -60 45v240q7 45 45 45zM941 1187h271q55 0 55 -45v-236q0 -50 -75 -50h-231q-75 0 -75 60v201q0 70 55 70zM156 1182h280q45 0 45 -55
v-226q0 -50 -60 -50h-260q-60 0 -60 60v211q0 60 55 60zM551 656h305q30 -17 30 -45v-235q-6 -45 -45 -45h-290q-45 0 -45 55v215q0 55 45 55zM161 321h290q45 -6 45 -45v-240q0 -40 -40 -40h-310q-30 0 -30 120v130q0 75 45 75zM546 321h290q45 -6 45 -45v-230
q0 -50 -40 -50h-310q-30 12 -30 70v195q0 60 45 60zM931 321h291q45 -6 45 -45v-240q0 -40 -40 -40h-311q-30 16 -30 55v200q0 70 45 70z" />
    <glyph glyph-name="I" unicode="I" horiz-adv-x="1405" 
d="M503 1837h297q45 -6 45 -45v-238q0 -44 -65 -44v5l-5 -5h-233l-5 5l-5 -5h-5q-54 3 -54 44v243q0 27 30 40zM527 1505h258q60 0 60 -45v-238q-7 -44 -45 -44h-273q-39 0 -54 29v253q0 45 54 45zM527 1163h273q45 -7 45 -45v-238q0 -44 -55 -44h-263q-54 0 -54 44v253
q15 30 54 30zM160 657h243q58 0 70 -30v-267q-18 -30 -45 -30h-282q-45 6 -45 45v238q0 44 59 44zM914 642h283q27 0 44 -29v-268q-15 -30 -54 -30l-5 5l-25 -5h-213q-75 0 -75 45v238q7 44 45 44zM156 320h262q39 0 55 -30v-257q0 -40 -45 -40h-282q-45 7 -45 45v237
q0 45 55 45zM914 305h283q44 0 44 -39v-258l-25 -25h-307q-40 0 -40 40v238q7 44 45 44z" />
    <glyph glyph-name="J" unicode="J" horiz-adv-x="997" 
d="M533 1854h289q45 0 45 -60v-195q0 -75 -55 -75v5l-5 -5h-259q-60 0 -60 45v240q6 45 45 45zM528 1499h304q30 -17 30 -45v-234q-6 -45 -45 -45h-289q-45 0 -45 70v199q0 55 45 55zM143 1155h265q39 0 55 -30v-260q0 -40 -45 -40h-285q-45 7 -45 45v240q0 45 55 45z
M548 1155h264q39 0 55 -30v-270q-17 -30 -45 -30h-274q-55 0 -55 45v240q0 45 55 45zM148 326h260q45 0 60 -35v-250q-7 -45 -45 -45h-280q-55 0 -55 60v210q0 60 60 60zM523 321h284q45 0 45 -40v-260l-25 -25h-309q-40 0 -40 40v240q6 45 45 45z" />
    <glyph glyph-name="K" unicode="K" horiz-adv-x="1410" 
d="M137 1862h291q40 0 40 -40v-246q0 -40 -50 -45v5l-5 -5h-211l-45 5l-20 -5q-45 10 -45 45v241q7 45 45 45zM920 1837h281q50 0 50 -40v-246q0 -18 -20 -40l-136 -5h-155l-5 5l-5 -5q-55 5 -55 45v256q17 30 45 30zM408 1511l5 -5l5 5q60 -3 60 -60v-221q-7 -50 -45 -50
h-291q-45 0 -45 55v226q0 50 90 50h221zM774 1511q111 0 111 -40v-231q0 -45 -36 -60h-301q-45 6 -45 45v236q0 50 91 50h180zM930 1185h266q39 0 55 -30v-271q-16 -30 -55 -30h-266q-55 0 -55 45v241q0 45 55 45zM152 1165h271q39 0 55 -30v-271q-16 -30 -55 -30h-266
q-55 0 -55 45v241q0 38 50 45zM569 668h285q46 0 46 -40v-261q-18 -30 -61 -30h-230q-86 0 -86 45v241q7 45 46 45zM463 327q60 0 60 -45v-241q-6 -45 -45 -45h-291q-45 0 -45 60v196q0 75 70 75h251zM579 322h280q51 0 51 -40v-261l-25 -25h-311q-41 0 -41 40v241
q7 45 46 45zM965 322h301q30 -13 30 -40v-261l-25 -25h-311q-40 0 -40 40v241q6 45 45 45z" />
    <glyph glyph-name="L" unicode="L" horiz-adv-x="1405" 
d="M138 1854h289q40 0 40 -40v-244q0 -45 -55 -45h-259q-60 0 -60 45v239q6 45 45 45zM143 1515h284q27 0 45 -30v-254q0 -45 -55 -45h-269q-50 7 -50 45v239q6 45 45 45zM143 1181h284q27 0 45 -30v-254q0 -45 -55 -45h-264q-55 0 -55 45v239q6 45 45 45zM542 1181h259
q39 0 55 -30v-259q0 -40 -50 -40h-279q-45 7 -45 45v239q0 45 60 45zM910 1176h284q28 0 45 -30v-254q0 -45 -69 -45h-255q-49 7 -49 45v254q17 30 44 30zM163 329h264q39 0 55 -30v-259q0 -40 -50 -40h-279q-45 6 -45 45v239q0 45 55 45zM537 324h289q44 -7 44 -45v-229
q0 -50 -39 -50h-309q-30 12 -30 70v194q0 60 45 60zM920 324h289q45 -7 45 -45v-239q0 -40 -40 -40h-309q-30 12 -30 70v194q0 60 45 60z" />
    <glyph glyph-name="M" unicode="M" horiz-adv-x="2192" 
d="M142 1857h291q40 0 40 -40v-246q0 -27 -25 -40h-311q-40 0 -40 40v241q7 45 45 45zM554 1857h301q30 -13 30 -40v-246q0 -40 -40 -40h-296q-40 0 -40 40v241q6 45 45 45zM1352 1857h276q55 0 55 -55v-221q0 -55 -55 -55h-276q-50 0 -50 60v211q0 60 50 60zM1763 1857h276
q56 0 56 -55v-221q0 -55 -56 -55h-276q-50 6 -50 50v221q0 60 50 60zM157 1506h236q80 0 80 -45v-246q0 -41 -40 -41h-291q-45 7 -45 46v241q0 45 60 45zM975 1506v-5l5 5h181q136 0 136 -35v-256q0 -41 -51 -41h-281q-27 0 -45 31v256q0 40 55 45zM1758 1501h291
q46 -7 46 -46v-235q0 -28 -31 -46h-321q-30 16 -30 56v215q0 56 45 56zM1783 1154h261q40 0 56 -30v-261q0 -40 -46 -40h-286q-45 7 -45 45v241q0 45 60 45zM162 1149h256q70 0 70 -45v-256q-17 -30 -45 -30h-286q-45 7 -45 45v241q0 38 50 45zM980 1144h251q55 0 55 -45
v-256q-17 -30 -45 -30h-286q-45 7 -45 45v241q0 45 70 45zM549 331h306q30 -17 30 -45v-236q0 -27 -30 -45h-321q-30 12 -30 70v196q0 60 45 60zM1322 326h281q55 0 55 -50v-221q0 -39 -30 -55h-311q-41 0 -41 45v226q0 55 46 55z" />
    <glyph glyph-name="N" unicode="N" horiz-adv-x="1401" 
d="M133 1866h290q40 0 40 -40v-260q0 -30 -105 -30h-160l-45 5l-20 -5q-45 10 -45 45v240q6 45 45 45zM528 1866h276q50 0 50 -60v-220q-7 -50 -50 -50h-276q-55 0 -55 55v220q0 55 55 55zM904 1861h290q40 0 40 -40v-260q0 -30 -95 -30h-195l-30 5l-5 -5h-5q-45 10 -45 45
v240q6 45 45 45zM138 1526h280q50 0 50 -40v-246q0 -27 -25 -40h-310q-40 0 -40 40v241q6 45 45 45zM909 1521h285q45 0 45 -40v-246q0 -27 -25 -40h-310q-40 0 -40 40v241q6 45 45 45zM158 1190h265q55 0 55 -45v-240q-6 -45 -45 -45h-275q-39 0 -55 30v255q0 45 55 45z
M929 1185h265q55 0 55 -45v-240q0 -45 -55 -45h-265q-55 0 -55 45v240q0 45 55 45zM554 675h290q45 -7 45 -45v-236q0 -50 -90 -50h-225l-5 5l-5 -5q-52 0 -56 60v221q7 50 46 50zM173 334h245q70 0 70 -45v-245q0 -40 -45 -40h-285q-45 6 -45 45v240q0 45 60 45zM543 329
h291q45 -6 45 -45v-235q0 -45 -40 -45h-311q-30 16 -30 55v220q7 50 45 50zM929 329h290q27 0 40 -25v-280q-8 -20 -35 -20h-310q-30 16 -30 55v210q0 60 45 60z" />
    <glyph glyph-name="O" unicode="O" horiz-adv-x="1393" 
d="M156 1853h263q39 0 55 -30v-258q0 -40 -45 -40h-283q-45 6 -45 45v238q0 45 55 45zM533 1858h289q44 -6 44 -45v-238q0 -45 -84 -45h-209q-79 0 -79 45v243q0 40 39 40zM936 1858h263q60 0 60 -75v-218q-18 -35 -50 -35h-283q-45 6 -45 45v238q0 45 55 45zM951 1520h248
q60 0 60 -75v-218q-22 -35 -50 -35h-273q-55 0 -55 45v238q0 45 70 45zM161 1515h258q55 0 55 -45v-243q0 -40 -45 -40h-283q-45 6 -45 45v238q0 45 60 45zM941 1187h268q50 -7 50 -45v-238q0 -38 -50 -45h-278q-50 0 -50 60v208q0 60 60 60zM161 1182h268q50 0 50 -55v-218
q0 -55 -55 -55h-273q-50 0 -50 60v208q0 60 60 60zM548 1182h274q27 0 44 -30v-268q-15 -30 -54 -30h-249q-69 0 -69 45v238q0 45 54 45zM171 327h278q45 -6 45 -45v-238q0 -40 -40 -40h-308q-30 0 -30 119v130q0 74 55 74zM553 327h279q44 -6 44 -45v-228q0 -50 -39 -50
h-309q-29 12 -29 70v193q0 60 54 60zM926 327h288q45 -6 45 -45v-238q0 -40 -40 -40h-308q-30 16 -30 55v208q0 60 45 60z" />
    <glyph glyph-name="P" unicode="P" horiz-adv-x="1397" 
d="M157 1854h278q28 0 45 -30v-268q-17 -30 -45 -30h-288q-46 7 -46 45v238q0 45 56 45zM536 1854h293q46 -6 46 -45v-238q0 -45 -61 -45h-222q-96 0 -96 40v248q0 40 40 40zM936 1854h293q32 0 50 -50v-238q-10 0 -10 -15q-16 -25 -96 -25h-222l-5 5l-5 -5h-5
q-46 10 -46 50v233q7 45 46 45zM157 1516h268q39 0 55 -30v-268q-16 -30 -55 -30h-268q-56 0 -56 45v238q0 45 56 45zM541 1516h298q41 0 41 -45v-233q-7 -45 -46 -45h-293q-45 0 -45 75v174q0 74 45 74zM936 1516h293q40 0 50 -54v-229q-20 -40 -50 -40h-293q-46 0 -46 55
v214q0 54 46 54zM152 1183h278q55 0 55 -54v-219q0 -55 -55 -55h-268q-61 0 -61 50v219q0 59 51 59zM566 682h238q81 0 81 -45v-244q0 -39 -46 -39h-288q-45 6 -45 44v239q0 45 60 45zM981 682h233q65 0 65 -75v-99l-5 -5l5 -5v-5l-5 -5l5 -30q0 -104 -45 -104h-293
q-46 6 -46 44v239q0 45 86 45zM177 334h248q59 0 71 -30v-258q0 -40 -51 -40h-283q-46 6 -46 45v238q0 45 61 45zM551 329h294q45 -7 45 -45v-228q0 -50 -40 -50h-314q-30 12 -30 70v193q0 60 45 60zM951 329h283q45 -7 45 -45v-238q0 -40 -40 -40h-314q-30 12 -30 70v193
q0 60 56 60z" />
    <glyph glyph-name="Q" unicode="Q" horiz-adv-x="1704" 
d="M146 1861h282q38 0 38 -38v-235q0 -43 -62 -43v5l-5 -5h-210q-82 0 -82 43v244q12 29 39 29zM528 1861h278q36 0 43 -48v-196q0 -72 -67 -72h-201q-96 0 -96 43v230q7 43 43 43zM911 1861h273q26 0 38 -29v-244q0 -38 -52 -43v5l-5 -5h-163q-134 0 -134 24l-5 19v235
q0 38 48 38zM136 1521h273q43 0 43 -38v-249l-24 -24h-297q-38 0 -38 39v229q6 43 43 43zM906 1512h278q36 0 43 -48v-196q0 -56 -29 -67h-296q-39 0 -39 48v220q7 43 43 43zM146 1182h277q38 0 38 -39v-234q0 -38 -38 -38h-282q-26 0 -38 28v254q16 29 43 29zM524 1182h277
q43 0 43 -53v-206q0 -37 -29 -52h-306q-28 16 -28 43v215q0 53 43 53zM897 1182h277q43 0 43 -39v-234q0 -38 -38 -38h-282q-38 0 -38 38v234q0 39 38 39zM1280 1182h277q38 0 38 -39v-234q0 -38 -38 -38h-282q-38 0 -38 38v230q6 43 43 43zM136 306h278q43 0 43 -67v-177
q0 -56 -29 -67h-297q-38 0 -38 43v225q6 43 43 43zM509 306h278q43 -6 43 -43v-220q0 -48 -38 -48h-297q-29 11 -29 67v196q7 48 43 48zM892 306h278q43 0 43 -53v-215q0 -43 -39 -43h-287q-38 0 -38 48v220q6 43 43 43zM1265 306h278q43 -6 43 -43v-230q0 -38 -38 -38h-297
q-29 11 -29 67v187q0 57 43 57z" />
    <glyph glyph-name="R" unicode="R" horiz-adv-x="1397" 
d="M142 1862h290q40 0 40 -40v-245q0 -45 -85 -45h-230q-60 0 -60 45v240q6 45 45 45zM537 1862h289q40 0 40 -40v-260q0 -30 -95 -30h-205q-74 0 -74 45v255q17 30 45 30zM946 1862h290q45 -6 45 -45v-235q0 -50 -85 -50h-160q-130 0 -130 30l-5 20v225q0 55 45 55z
M137 1507h295q40 0 40 -40v-244q0 -40 -40 -40h-290q-45 6 -45 45v239q0 40 40 40zM427 1168q50 -9 50 -45v-245q0 -40 -50 -40h-280q-45 7 -45 45v240q0 40 40 40h265zM601 683h240q60 0 60 -45v-244q0 -28 -30 -40h-300q-44 6 -44 45v239q0 45 74 45zM1151 683
q135 0 135 -30v-269q-18 -30 -45 -30h-285q-45 6 -45 45v239q0 45 105 45h135zM202 334h245q58 0 70 -30v-260q0 -40 -40 -40h-290q-45 6 -45 45v240q0 45 60 45zM571 329h290q45 -7 45 -45v-230q0 -50 -40 -50h-309q-30 16 -30 55v210q0 60 44 60zM956 329h290
q45 -7 45 -45v-240q0 -40 -40 -40h-310q-30 16 -30 55v210q0 60 45 60z" />
    <glyph glyph-name="S" unicode="S" horiz-adv-x="1401" 
d="M516 1854h299q30 -13 30 -40v-244q0 -18 -20 -40l-135 -5h-159l-5 5l-5 -5h-5q-45 10 -45 45v254q17 30 45 30zM914 1854h299q30 -13 30 -40v-244q0 -18 -20 -40l-134 -5h-110q-110 0 -110 40v259q18 30 45 30zM560 1505h105l175 -5q25 -21 25 -70v-194q0 -60 -45 -60
h-289q-45 7 -45 45v229q0 55 74 55zM147 1156h264q39 0 55 -30v-259q0 -40 -55 -40h-264q-55 0 -55 45v239q0 45 55 45zM551 1156h264q39 0 54 -30v-269q-17 -30 -44 -30h-274q-55 0 -55 45v239q0 45 55 45zM949 663h284q28 0 45 -30v-254q0 -42 -55 -45l-5 5l-25 -5h-204
q-85 0 -85 45v239q7 45 45 45zM182 329h244q75 0 75 -50v-234q-7 -45 -45 -45h-279q-55 0 -55 60v209q0 60 60 60zM556 324h284q44 0 44 -40v-259l-24 -25h-309q-40 0 -40 40v239q6 45 45 45zM939 324h279q50 0 50 -40v-259l-25 -25h-309q-40 0 -40 40v239q7 45 45 45z" />
    <glyph glyph-name="T" unicode="T" horiz-adv-x="1405" 
d="M144 1858h272q27 0 45 -30v-267q-18 -30 -45 -30h-272q-55 0 -55 44v238q0 45 55 45zM515 1858h288q44 -6 44 -45v-238q0 -44 -74 -44h-203q-94 0 -94 39v248q0 40 39 40zM907 1858h287q45 0 45 -59v-184q0 -59 -25 -79l-134 -5h-153l-5 5l-5 -5q-55 0 -55 54v228
q7 45 45 45zM530 1526h263q54 0 54 -45v-253q-15 -29 -54 -29h-273q-44 6 -44 44v238q0 45 54 45zM530 1184h273q44 -7 44 -45v-238q0 -44 -54 -44h-263q-54 0 -54 44v238q0 45 54 45zM163 678h243q58 0 70 -30v-267q-18 -30 -45 -30h-273q-54 0 -54 45v238q0 44 59 44z
M917 663h282q45 0 45 -39v-258q0 -27 -79 -30h-208q-85 0 -85 45v238q7 44 45 44zM158 341h263q39 0 55 -30v-257q0 -40 -45 -40h-283q-44 6 -44 45v237q0 45 54 45zM917 326h282q45 0 45 -39v-258l-25 -25h-307q-40 0 -40 40v238q7 44 45 44z" />
    <glyph glyph-name="U" unicode="U" horiz-adv-x="1401" 
d="M142 1854h289q40 0 40 -40v-244q-7 -45 -45 -45l-25 5h-199l-45 -5q-60 0 -60 45v239q6 45 45 45zM954 1854h289q28 0 40 -30v-254q0 -42 -60 -45l-25 5h-209l-30 -5q-50 8 -50 45v254q18 30 45 30zM152 1505h289q38 0 45 -50v-219q0 -39 -30 -55h-319q-30 18 -30 45v224
q0 55 45 55zM964 1505h289q45 0 45 -75v-94l-5 -135l-25 -20h-309q-40 0 -40 45v224q0 55 45 55zM172 1156h264q39 0 55 -30v-269q-18 -30 -45 -30h-274q-55 0 -55 45v239q0 45 55 45zM575 1156h265q39 0 54 -30v-269q-17 -30 -44 -30h-275q-54 0 -54 45v239q0 45 54 45z
M979 1156h269q39 0 55 -30v-269q-17 -30 -45 -30h-274q-55 0 -55 45v239q0 38 50 45zM466 329q60 0 60 -45v-239q-7 -45 -45 -45h-289q-45 0 -45 60v194q0 75 70 75h249zM580 324h280q49 0 49 -40v-259l-25 -25h-309q-39 0 -39 40v239q6 45 44 45zM964 324h299
q30 -13 30 -40v-259l-25 -25h-309q-40 0 -40 40v239q7 45 45 45z" />
    <glyph glyph-name="V" unicode="V" horiz-adv-x="1397" 
d="M138 1859h289q40 0 40 -40v-244q-7 -45 -45 -45l-25 5h-199l-45 -5q-60 0 -60 45v239q6 45 45 45zM935 1859h304q40 0 40 -40v-244q0 -42 -60 -45l-25 5h-209l-30 -5q-50 8 -50 45v254zM148 1510h289q38 0 45 -50v-219q0 -39 -30 -55h-319q-30 18 -30 45v224q0 55 45 55z
M960 1510h289q40 0 40 -45h10v-244q-10 0 -20 -25l-15 -10h-309q-40 0 -40 45v224q0 55 45 55zM571 1161h265q39 0 54 -30v-269q-17 -30 -44 -30h-275q-54 0 -54 45v239q0 45 54 45zM272 673h175l5 -5l5 5q60 0 60 -50v-234q-7 -45 -45 -45h-284q-50 0 -50 60v194
q0 70 55 70zM1224 673q39 0 75 -20v-289l-45 -20h-279q-55 0 -55 60v194q0 75 70 75h234zM462 334q60 0 60 -45v-239q-7 -45 -45 -45h-289q-45 0 -45 60v194q0 75 70 75h249zM576 329h280q49 0 49 -40v-259l-25 -25h-309q-39 0 -39 40v239q6 45 44 45zM960 329h299
q30 -13 30 -40v-259l-25 -25h-309q-40 0 -40 40v239q7 45 45 45z" />
    <glyph glyph-name="W" unicode="W" horiz-adv-x="2205" 
d="M1750 1866h289q39 0 39 -40v-244q0 -45 -69 -45v5l-5 -5h-224q-75 0 -75 45v254q17 30 45 30zM122 1856h304q39 0 39 -40v-259l-24 -25h-309q-40 0 -40 40v254zM938 1856h289q45 -6 45 -45v-234q0 -45 -40 -45h-309q-29 16 -29 55v209q0 60 44 60zM1337 1513h318
q30 -18 30 -45v-234q-6 -45 -45 -45h-288q-45 0 -45 55v214q0 39 30 55zM1745 1513h309q34 0 34 -35v-264q-12 -25 -39 -25h-289q-45 0 -45 55v214q0 39 30 55zM152 1508h209q104 0 104 -35v-254q0 -40 -39 -40h-289q-45 6 -45 45v239q0 45 60 45zM585 1508h214l20 -5l5 5h5
q25 0 45 -30v-259q0 -40 -40 -40h-289q-45 6 -45 45v239q0 45 85 45zM963 1508v-5l5 5h244l5 -5l5 5h5q55 -12 55 -30v-259q0 -40 -40 -40h-289q-45 6 -45 45v239q0 39 55 45zM1386 1169h234q58 0 70 -30v-269q-17 -30 -45 -30h-283q-45 7 -45 45v239q0 45 69 45zM555 1159
h274q55 0 55 -45v-239q0 -45 -55 -45h-274q-45 0 -50 60v194q0 75 50 75zM211 333h234l5 -5l5 5h5q33 0 50 -30v-259q0 -40 -40 -40h-288q-45 6 -45 45v239q0 45 74 45zM1745 333h259q60 0 60 -45v-239q-7 -45 -45 -45h-299l-30 30v269q16 30 55 30zM948 328h289
q45 -7 45 -45v-239q0 -40 -40 -40h-309q-29 0 -29 95v144q0 85 44 85z" />
    <glyph glyph-name="X" unicode="X" horiz-adv-x="1410" 
d="M133 1858h289q40 0 40 -40v-259q0 -27 -80 -30h-234q-60 0 -60 45v239q6 45 45 45zM900 1853h289q40 0 40 -40v-259q0 -30 -129 -30h-155l-30 5l-5 -5h-5q-49 8 -49 45v239q6 45 44 45zM527 1519h279q50 0 50 -60v-209q0 -60 -50 -60h-279q-50 0 -50 55v219q0 55 50 55z
M158 1185h264q55 0 55 -45v-239q-7 -45 -45 -45h-274q-39 0 -55 30v254q0 45 55 45zM925 1180h264q55 0 55 -45v-239q0 -45 -55 -45h-264q-55 0 -55 45v239q0 45 55 45zM556 667h280q44 -7 44 -45v-234q-6 -50 -49 -50l-5 5l-25 -5h-230l-5 5l-5 -5h-5q-51 0 -54 60v219
q0 50 54 50zM173 333h244q70 0 70 -45v-244q0 -40 -45 -40h-284q-45 6 -45 45v239q0 45 60 45zM542 328h289q44 -7 44 -45v-234q0 -45 -39 -45h-309q-30 16 -30 55v219q7 50 45 50zM925 328h289q27 0 40 -25v-279q-8 -20 -35 -20h-309q-30 16 -30 55v209q0 60 45 60z" />
    <glyph glyph-name="Y" unicode="Y" horiz-adv-x="1366" 
d="M142 1866h305q28 0 46 -30v-259q0 -46 -107 -46h-188q-87 0 -87 46v248q0 28 31 41zM885 1861h280q56 0 56 -46v-233q0 -56 -56 -56h-280q-51 0 -51 61v223q7 51 51 51zM519 1551h305q31 -12 31 -40v-249q0 -40 -41 -40h-301q-40 0 -40 40v244q6 45 46 45zM539 1206v-5
l5 5h249l6 -5l5 5q61 0 61 -81v-142q0 -111 -41 -111h-300q-46 6 -46 45v244q0 45 61 45zM157 339h250q59 0 71 -31v-263q0 -41 -46 -41h-290q-46 7 -46 46v243q0 46 61 46zM926 334h295q28 0 41 -26v-268q0 -36 -36 -36h-315q-31 16 -31 56v223q7 51 46 51z" />
    <glyph glyph-name="Z" unicode="Z" horiz-adv-x="1397" 
d="M146 1854h289q40 0 40 -40v-259q-16 -30 -55 -30h-249q-70 0 -70 45v239q6 45 45 45zM540 1854h274q50 0 50 -55v-219q0 -55 -50 -55h-274q-55 0 -55 55v224q0 50 55 50zM540 1515h269q60 0 60 -50v-224q0 -55 -55 -55h-269q-55 0 -55 55v224q6 50 50 50zM530 1176h304
q44 0 44 -70v-184q0 -70 -44 -70h-304q-30 18 -30 45v234q0 28 30 45zM983 1176h204q58 0 70 -30v-259q0 -40 -40 -40h-289q-45 7 -45 45v239q0 45 100 45zM181 668h259q60 0 60 -55v-229q-7 -45 -45 -45h-279q-55 0 -55 50v219q0 60 60 60zM171 324h279q50 0 50 -40v-259
l-25 -25h-324q-25 13 -25 40v254q17 30 45 30z" />
    <glyph glyph-name="bracketleft" unicode="[" horiz-adv-x="569" 
 />
    <glyph glyph-name="backslash" unicode="\" horiz-adv-x="569" 
 />
    <glyph glyph-name="bracketright" unicode="]" horiz-adv-x="569" 
 />
    <glyph glyph-name="asciicircum" unicode="^" horiz-adv-x="961" 
 />
    <glyph glyph-name="underscore" unicode="_" horiz-adv-x="1296" 
d="M410 313q59 0 59 -43v-234q-7 -44 -44 -44h-281q-43 0 -43 59v189q0 73 67 73h242zM521 308h272q47 0 47 -38v-253l-23 -25h-300q-39 0 -39 39v234q6 43 43 43zM894 308h291q28 -12 28 -38v-253l-23 -25h-301q-39 0 -39 39v234q7 43 44 43z" />
    <glyph glyph-name="grave" unicode="`" horiz-adv-x="682" 
 />
    <glyph glyph-name="a" unicode="a" horiz-adv-x="1368" 
d="M148 1849h272q28 0 45 -30v-268q-17 -29 -45 -29h-272q-55 0 -55 44v238q0 45 55 45zM520 1849h287q45 -6 45 -45v-238q0 -44 -60 -44h-218q-94 0 -94 39v248q0 40 40 40zM911 1849h288q31 0 50 -50v-238h-10q0 -39 -80 -39h-233q-59 0 -59 49v233q6 45 44 45zM549 1517
h248q55 0 55 -45v-253q-18 -30 -45 -30h-283q-44 7 -44 45v238q0 45 69 45zM926 1517h268q45 0 55 -60v-223q-20 -45 -55 -45h-273q-54 0 -54 50v228q0 50 59 50zM123 1512h302q45 0 45 -85v-163l-5 -20l5 -5v-5q-10 -45 -45 -45h-287q-45 7 -45 45v233q0 27 30 45z
M177 1179h209q84 0 84 -49v-228q-7 -50 -45 -50h-287q-45 0 -45 55v223q0 49 84 49zM916 1179h273q55 0 55 -44v-228q0 -55 -60 -55h-258q-59 0 -59 75v193q0 59 49 59zM802 669l5 -5l5 5q55 -4 55 -45v-243q0 -40 -50 -40h-278q-44 7 -44 45v238q0 45 104 45h203zM167 331
h243q58 0 70 -29v-258q0 -40 -50 -40h-277q-45 6 -45 45v238q0 44 59 44zM534 331h278q50 0 50 -39v-258q-12 -22 -40 -30l-35 5h-258q-39 0 -39 40v238q6 44 44 44zM926 326h278q45 -6 45 -44v-238q0 -40 -40 -40h-308q-29 16 -29 55v208q0 59 54 59z" />
    <glyph glyph-name="b" unicode="b" horiz-adv-x="1410" 
d="M154 1841h289q40 0 40 -40v-244q0 -45 -55 -45h-259q-60 0 -60 45v239q6 45 45 45zM159 1507h254q75 0 75 -70v-149q0 -110 -40 -110h-294q-45 7 -45 45v239q0 38 50 45zM543 1507h284q27 0 45 -30v-254q0 -45 -55 -45h-264q-55 0 -55 45v239q6 45 45 45zM941 1507h269
q60 -5 60 -60v-224q-16 -45 -65 -45h-259q-60 0 -60 50v224q0 55 55 55zM159 1168h269q60 0 60 -50v-229q0 -50 -55 -50h-269q-55 0 -55 50v229q7 50 50 50zM543 1168h279q55 0 55 -60v-94l-5 -150q-22 -25 -70 -25h-229q-75 0 -75 55v229q6 45 45 45zM941 1168h279
q45 -6 45 -45v-229q0 -55 -60 -55h-244q-75 0 -75 70v199q0 60 55 60zM179 316h264q39 0 55 -30v-259q0 -40 -50 -40h-279q-45 7 -45 45v239q0 45 55 45zM538 316h319q29 -12 29 -70v-199q0 -55 -44 -55h-294q-40 0 -40 45v234q0 27 30 45zM936 311h289q45 -7 45 -45v-239
q0 -40 -40 -40h-309q-30 12 -30 70v194q0 60 45 60z" />
    <glyph glyph-name="c" unicode="c" horiz-adv-x="1401" 
d="M147 1858h275q27 0 45 -30v-270q-18 -30 -45 -30h-285q-45 7 -45 45v240q0 45 55 45zM522 1858h289q45 -6 45 -45v-240q0 -45 -60 -45h-220q-94 0 -94 40v250q0 40 40 40zM916 1858h290q31 0 50 -50v-240q-10 0 -10 -15l-20 -20l-135 -5h-155l-5 5l-5 -5q-55 5 -55 50
v235q7 45 45 45zM147 1518h265q39 0 55 -30v-269q-16 -30 -55 -30h-265q-55 0 -55 45v239q0 45 55 45zM142 1184h275q55 0 55 -50v-225q0 -55 -55 -55h-265q-60 0 -60 50v220q0 60 50 60zM916 1184h275q55 0 55 -45v-240q0 -38 -50 -45h-270q-39 0 -55 30v270q18 30 45 30z
M522 1179h294q40 0 40 -45v-235q-6 -45 -45 -45h-289q-45 0 -45 75v190q0 60 45 60zM167 330h245q58 0 70 -30v-260q0 -40 -50 -40h-280q-45 6 -45 45v240q0 45 60 45zM537 325h289q45 -7 45 -45v-230q0 -50 -40 -50h-309q-30 12 -30 70v195q0 60 45 60zM931 325h280
q45 -7 45 -45v-240q0 -40 -40 -40h-310q-30 12 -30 70v195q0 60 55 60z" />
    <glyph glyph-name="d" unicode="d" horiz-adv-x="1342" 
d="M912 1854h290q45 -6 45 -45v-240q0 -45 -60 -45h-210q-105 0 -105 35v255q0 40 40 40zM538 1519h269q50 -6 50 -50v-224q0 -55 -55 -55h-274q-50 0 -50 60v209q0 60 60 60zM927 1519h265q55 0 55 -45v-239q-7 -45 -45 -45h-285q-27 0 -45 30v254q0 45 55 45zM133 1514
h295q40 0 40 -40v-254q-18 -30 -45 -30h-290q-40 0 -40 40v244q0 40 40 40zM133 1180h285q45 0 45 -40v-245q0 -27 -25 -40h-310q-40 0 -40 40v240q6 45 45 45zM518 1180h294q40 0 40 -40v-240q0 -27 -30 -45h-304q-40 0 -40 40v245q0 40 40 40zM897 1180h305q40 0 40 -40
v-245q0 -40 -40 -40h-305q-30 18 -30 45v230q0 39 30 50zM178 326h245q60 0 60 -45v-240q-7 -45 -45 -45h-290q-40 0 -40 40v260q12 30 70 30zM553 326l4 -5l25 5h165q120 0 120 -30v-260q0 -40 -40 -40h-289q-45 6 -45 45v250q15 35 60 35zM922 321h285q45 0 45 -40v-260
l-25 -25h-310q-40 0 -40 40v240q7 45 45 45z" />
    <glyph glyph-name="e" unicode="e" horiz-adv-x="1405" 
d="M207 321h275q26 0 43 -29v-246q0 -26 -24 -38h-298q-39 0 -39 38v231q6 44 43 44zM573 321h274q43 0 43 -39v-236q0 -26 -24 -38h-312q-24 12 -24 38v231q6 44 43 44zM948 321h274q27 0 44 -29v-246q0 -26 -25 -38h-298q-38 0 -38 38v246q17 29 43 29zM128 1870h227
q35 0 35 -40v-165q0 -37 -70 -37h-172l-4 4l-4 -4q-47 3 -47 45v157q0 40 35 40zM437 1870h227q35 -5 35 -33v-172q0 -37 -70 -37h-141q-82 0 -82 27l-4 29v143q0 43 35 43zM746 1870h227q31 0 31 -29v-190q0 -23 -94 -23h-94q-105 0 -105 27v182q5 33 35 33zM1055 1870h227
q31 0 31 -29v-179q0 -34 -62 -34h-184q-47 0 -47 34v175q5 33 35 33zM136 1607h219q35 -5 35 -33v-172q0 -28 -35 -36l-20 4h-187l-16 -4q-35 0 -39 43v154q0 44 43 44zM441 1438h219q35 -4 35 -32v-169q0 -39 -47 -39v3l-4 -3h-180l-15 3l-4 -3q-30 0 -43 21v190
q0 29 39 29zM742 1438h227q31 0 31 -29v-190q-9 -21 -55 -21h-191q-47 0 -47 32v176q5 32 35 32zM1051 1438h227q35 0 35 -61v-110l-4 -15l4 -4q0 -50 -59 -50h-179q-59 0 -59 36v172q5 32 35 32zM124 1350h227q35 -4 35 -32v-172q0 -33 -31 -33h-243q-23 12 -23 40v154
q0 43 35 43zM202 1092h125l4 -4l4 4q47 -6 47 -37v-164q0 -41 -35 -41h-227q-35 0 -35 41v156q0 41 43 41zM519 1092h114q58 0 58 -37v-172q-5 -33 -35 -33h-227q-30 0 -35 37v160q0 23 20 41zM766 1092h172q58 0 58 -34v-179q0 -29 -31 -29h-239l-23 22v186q0 34 63 34z
M1078 1092h173q54 0 54 -34v-179q0 -29 -31 -29h-227q-21 0 -35 22v186q0 34 66 34z" />
    <glyph glyph-name="f" unicode="f" horiz-adv-x="1283" 
d="M448 315h267q43 -6 43 -43v-223q0 -34 -38 -48l-48 5h-247q-29 15 -29 52v191q0 66 52 66zM824 311h267q43 -7 43 -43v-219q0 -48 -38 -48h-295q-29 11 -29 67v185q0 58 52 58zM132 1858h264q36 0 36 -30v-179q0 -33 -76 -33h-184q-76 0 -76 33v187q12 22 36 22z
M472 1858h273q36 0 36 -30v-179q0 -33 -76 -33h-126q-134 0 -134 23v197zM839 1858h259q25 0 36 -18v-194q0 -30 -45 -30v4l-4 -4h-233q-53 0 -53 44v161q6 37 40 37zM137 1594h255q40 0 40 -29v-190q-14 -23 -49 -23v5l-5 -5l-22 5h-188l-27 -5q-45 7 -45 34v175
q6 33 41 33zM132 1339h260q35 0 35 -30v-179q0 -20 -22 -30h-277q-36 0 -36 30v175q6 34 40 34zM700 1339q62 0 76 -23v-186q-6 -33 -40 -33h-250q-50 0 -50 43v143q0 56 63 56h201zM977 1339q144 0 144 -23v-186q-6 -33 -41 -33h-250q-49 0 -49 43v154q0 45 71 45h125z
M123 1075h260q35 0 35 -30v-190q-15 -22 -44 -22v3l-5 -3h-232q-54 0 -54 33v176q6 33 40 33z" />
    <glyph glyph-name="g" unicode="g" horiz-adv-x="1296" 
d="M141 1867h276q39 0 39 -30v-189q0 -34 -81 -34h-196q-81 0 -81 34v196q17 23 43 23zM513 1867h276q38 0 38 -30v-189q0 -34 -81 -34h-133q-143 0 -143 23v207q17 23 43 23zM889 1867h276q26 0 39 -19v-204q0 -30 -48 -30v4l-5 -4h-152l-129 4q-24 18 -24 42v169
q7 38 43 38zM141 1591h272q43 0 43 -31v-199q-19 -23 -43 -23l-5 4h-5l-5 -4l-23 4h-200l-29 -4q-48 6 -48 34v184q6 35 43 35zM136 1322h277q38 0 38 -30v-199q-12 -20 -38 -20h-281q-26 0 -38 23v192q6 34 42 34zM1037 1322q152 0 152 -23v-195q-6 -35 -43 -35h-271
q-48 0 -48 69v127q0 57 67 57h143zM127 1046h276q38 0 38 -30v-200q-16 -23 -47 -23v4l-5 -4h-248q-57 0 -57 34v185q6 34 43 34zM503 1046h277q42 0 42 -65v-123q0 -65 -52 -65h-238q-72 0 -72 34v185q7 34 43 34zM875 1046h276q43 0 43 -58v-72l-5 -104q-20 -19 -66 -19
h-196q-95 0 -95 27v192q6 34 43 34zM141 328h234q55 0 66 -28v-248q0 -38 -38 -38h-276q-43 6 -43 43v228q0 43 57 43zM498 319h277q43 -7 43 -43v-219q0 -48 -38 -48h-296q-28 15 -28 52v200q0 58 42 58zM875 319h276q43 -7 43 -43v-219q0 -48 -38 -48h-295q-29 11 -29 67
v185l5 5l-5 5v5q9 43 43 43z" />
    <glyph glyph-name="h" unicode="h" horiz-adv-x="1405" 
d="M146 1857h290q40 0 40 -40v-245q0 -45 -55 -45h-260q-60 0 -60 45v240q6 45 45 45zM936 1862h296q35 -15 35 -60v-230q-17 -40 -60 -40h-251q-70 0 -70 45v255q11 30 50 30zM931 1522h286q45 0 50 -60v-230q-15 -40 -70 -40h-241q-70 0 -70 45v255q18 30 45 30zM146 1517
h285q45 0 45 -40v-245q0 -45 -70 -45h-255q-50 7 -50 45v240q6 45 45 45zM536 1517h285q45 0 45 -40v-245q0 -45 -70 -45h-245q-60 0 -60 45v240q7 45 45 45zM941 1187h271q55 0 55 -45v-236q0 -50 -75 -50h-231q-75 0 -75 60v201q0 70 55 70zM156 1182h280q45 0 45 -55
v-226q0 -50 -60 -50h-260q-60 0 -60 60v211q0 60 55 60zM551 656h305q30 -17 30 -45v-235q-6 -45 -45 -45h-290q-45 0 -45 55v215q0 55 45 55zM161 321h290q45 -6 45 -45v-240q0 -40 -40 -40h-310q-30 0 -30 120v130q0 75 45 75zM546 321h290q45 -6 45 -45v-230
q0 -50 -40 -50h-310q-30 12 -30 70v195q0 60 45 60zM931 321h291q45 -6 45 -45v-240q0 -40 -40 -40h-311q-30 16 -30 55v200q0 70 45 70z" />
    <glyph glyph-name="i" unicode="i" horiz-adv-x="1401" 
d="M503 1837h297q45 -6 45 -45v-238q0 -44 -65 -44v5l-5 -5h-233l-5 5l-5 -5h-5q-54 3 -54 44v243q0 27 30 40zM527 1505h258q60 0 60 -45v-238q-7 -44 -45 -44h-273q-39 0 -54 29v253q0 45 54 45zM527 1163h273q45 -7 45 -45v-238q0 -44 -55 -44h-263q-54 0 -54 44v253
q15 30 54 30zM160 657h243q58 0 70 -30v-267q-18 -30 -45 -30h-282q-45 6 -45 45v238q0 44 59 44zM914 642h283q27 0 44 -29v-268q-15 -30 -54 -30l-5 5l-25 -5h-213q-75 0 -75 45v238q7 44 45 44zM156 320h262q39 0 55 -30v-257q0 -40 -45 -40h-282q-45 7 -45 45v237
q0 45 55 45zM914 305h283q44 0 44 -39v-258l-25 -25h-307q-40 0 -40 40v238q7 44 45 44z" />
    <glyph glyph-name="j" unicode="j" horiz-adv-x="1006" 
d="M533 1854h289q45 0 45 -60v-195q0 -75 -55 -75v5l-5 -5h-259q-60 0 -60 45v240q6 45 45 45zM528 1499h304q30 -17 30 -45v-234q-6 -45 -45 -45h-289q-45 0 -45 70v199q0 55 45 55zM143 1155h265q39 0 55 -30v-260q0 -40 -45 -40h-285q-45 7 -45 45v240q0 45 55 45z
M548 1155h264q39 0 55 -30v-270q-17 -30 -45 -30h-274q-55 0 -55 45v240q0 45 55 45zM148 326h260q45 0 60 -35v-250q-7 -45 -45 -45h-280q-55 0 -55 60v210q0 60 60 60zM523 321h284q45 0 45 -40v-260l-25 -25h-309q-40 0 -40 40v240q6 45 45 45z" />
    <glyph glyph-name="k" unicode="k" horiz-adv-x="1401" 
d="M137 1862h291q40 0 40 -40v-246q0 -40 -50 -45v5l-5 -5h-211l-45 5l-20 -5q-45 10 -45 45v241q7 45 45 45zM920 1837h281q50 0 50 -40v-246q0 -18 -20 -40l-136 -5h-155l-5 5l-5 -5q-55 5 -55 45v256q17 30 45 30zM408 1511l5 -5l5 5q60 -3 60 -60v-221q-7 -50 -45 -50
h-291q-45 0 -45 55v226q0 50 90 50h221zM774 1511q111 0 111 -40v-231q0 -45 -36 -60h-301q-45 6 -45 45v236q0 50 91 50h180zM930 1185h266q39 0 55 -30v-271q-16 -30 -55 -30h-266q-55 0 -55 45v241q0 45 55 45zM152 1165h271q39 0 55 -30v-271q-16 -30 -55 -30h-266
q-55 0 -55 45v241q0 38 50 45zM569 668h285q46 0 46 -40v-261q-18 -30 -61 -30h-230q-86 0 -86 45v241q7 45 46 45zM463 327q60 0 60 -45v-241q-6 -45 -45 -45h-291q-45 0 -45 60v196q0 75 70 75h251zM579 322h280q51 0 51 -40v-261l-25 -25h-311q-41 0 -41 40v241
q7 45 46 45zM965 322h301q30 -13 30 -40v-261l-25 -25h-311q-40 0 -40 40v241q6 45 45 45z" />
    <glyph glyph-name="l" unicode="l" horiz-adv-x="1359" 
d="M138 1854h289q40 0 40 -40v-244q0 -45 -55 -45h-259q-60 0 -60 45v239q6 45 45 45zM143 1515h284q27 0 45 -30v-254q0 -45 -55 -45h-269q-50 7 -50 45v239q6 45 45 45zM143 1181h284q27 0 45 -30v-254q0 -45 -55 -45h-264q-55 0 -55 45v239q6 45 45 45zM542 1181h259
q39 0 55 -30v-259q0 -40 -50 -40h-279q-45 7 -45 45v239q0 45 60 45zM910 1176h284q28 0 45 -30v-254q0 -45 -69 -45h-255q-49 7 -49 45v254q17 30 44 30zM163 329h264q39 0 55 -30v-259q0 -40 -50 -40h-279q-45 6 -45 45v239q0 45 55 45zM537 324h289q44 -7 44 -45v-229
q0 -50 -39 -50h-309q-30 12 -30 70v194q0 60 45 60zM920 324h289q45 -7 45 -45v-239q0 -40 -40 -40h-309q-30 12 -30 70v194q0 60 45 60z" />
    <glyph glyph-name="m" unicode="m" horiz-adv-x="2205" 
d="M142 1857h291q40 0 40 -40v-246q0 -27 -25 -40h-311q-40 0 -40 40v241q7 45 45 45zM554 1857h301q30 -13 30 -40v-246q0 -40 -40 -40h-296q-40 0 -40 40v241q6 45 45 45zM1352 1857h276q55 0 55 -55v-221q0 -55 -55 -55h-276q-50 0 -50 60v211q0 60 50 60zM1763 1857h276
q56 0 56 -55v-221q0 -55 -56 -55h-276q-50 6 -50 50v221q0 60 50 60zM157 1506h236q80 0 80 -45v-246q0 -41 -40 -41h-291q-45 7 -45 46v241q0 45 60 45zM975 1506v-5l5 5h181q136 0 136 -35v-256q0 -41 -51 -41h-281q-27 0 -45 31v256q0 40 55 45zM1758 1501h291
q46 -7 46 -46v-235q0 -28 -31 -46h-321q-30 16 -30 56v215q0 56 45 56zM1783 1154h261q40 0 56 -30v-261q0 -40 -46 -40h-286q-45 7 -45 45v241q0 45 60 45zM162 1149h256q70 0 70 -45v-256q-17 -30 -45 -30h-286q-45 7 -45 45v241q0 38 50 45zM980 1144h251q55 0 55 -45
v-256q-17 -30 -45 -30h-286q-45 7 -45 45v241q0 45 70 45zM549 331h306q30 -17 30 -45v-236q0 -27 -30 -45h-321q-30 12 -30 70v196q0 60 45 60zM1322 326h281q55 0 55 -50v-221q0 -39 -30 -55h-311q-41 0 -41 45v226q0 55 46 55z" />
    <glyph glyph-name="n" unicode="n" horiz-adv-x="1405" 
d="M133 1866h290q40 0 40 -40v-260q0 -30 -105 -30h-160l-45 5l-20 -5q-45 10 -45 45v240q6 45 45 45zM528 1866h276q50 0 50 -60v-220q-7 -50 -50 -50h-276q-55 0 -55 55v220q0 55 55 55zM904 1861h290q40 0 40 -40v-260q0 -30 -95 -30h-195l-30 5l-5 -5h-5q-45 10 -45 45
v240q6 45 45 45zM138 1526h280q50 0 50 -40v-246q0 -27 -25 -40h-310q-40 0 -40 40v241q6 45 45 45zM909 1521h285q45 0 45 -40v-246q0 -27 -25 -40h-310q-40 0 -40 40v241q6 45 45 45zM158 1190h265q55 0 55 -45v-240q-6 -45 -45 -45h-275q-39 0 -55 30v255q0 45 55 45z
M929 1185h265q55 0 55 -45v-240q0 -45 -55 -45h-265q-55 0 -55 45v240q0 45 55 45zM554 675h290q45 -7 45 -45v-236q0 -50 -90 -50h-225l-5 5l-5 -5q-52 0 -56 60v221q7 50 46 50zM173 334h245q70 0 70 -45v-245q0 -40 -45 -40h-285q-45 6 -45 45v240q0 45 60 45zM543 329
h291q45 -6 45 -45v-235q0 -45 -40 -45h-311q-30 16 -30 55v220q7 50 45 50zM929 329h290q27 0 40 -25v-280q-8 -20 -35 -20h-310q-30 16 -30 55v210q0 60 45 60z" />
    <glyph glyph-name="o" unicode="o" horiz-adv-x="1401" 
d="M156 1853h263q39 0 55 -30v-258q0 -40 -45 -40h-283q-45 6 -45 45v238q0 45 55 45zM533 1858h289q44 -6 44 -45v-238q0 -45 -84 -45h-209q-79 0 -79 45v243q0 40 39 40zM936 1858h263q60 0 60 -75v-218q-18 -35 -50 -35h-283q-45 6 -45 45v238q0 45 55 45zM951 1520h248
q60 0 60 -75v-218q-22 -35 -50 -35h-273q-55 0 -55 45v238q0 45 70 45zM161 1515h258q55 0 55 -45v-243q0 -40 -45 -40h-283q-45 6 -45 45v238q0 45 60 45zM941 1187h268q50 -7 50 -45v-238q0 -38 -50 -45h-278q-50 0 -50 60v208q0 60 60 60zM161 1182h268q50 0 50 -55v-218
q0 -55 -55 -55h-273q-50 0 -50 60v208q0 60 60 60zM548 1182h274q27 0 44 -30v-268q-15 -30 -54 -30h-249q-69 0 -69 45v238q0 45 54 45zM171 327h278q45 -6 45 -45v-238q0 -40 -40 -40h-308q-30 0 -30 119v130q0 74 55 74zM553 327h279q44 -6 44 -45v-228q0 -50 -39 -50
h-309q-29 12 -29 70v193q0 60 54 60zM926 327h288q45 -6 45 -45v-238q0 -40 -40 -40h-308q-30 16 -30 55v208q0 60 45 60z" />
    <glyph glyph-name="p" unicode="p" horiz-adv-x="1405" 
d="M157 1854h278q28 0 45 -30v-268q-17 -30 -45 -30h-288q-46 7 -46 45v238q0 45 56 45zM536 1854h293q46 -6 46 -45v-238q0 -45 -61 -45h-222q-96 0 -96 40v248q0 40 40 40zM936 1854h293q32 0 50 -50v-238q-10 0 -10 -15q-16 -25 -96 -25h-222l-5 5l-5 -5h-5
q-46 10 -46 50v233q7 45 46 45zM157 1516h268q39 0 55 -30v-268q-16 -30 -55 -30h-268q-56 0 -56 45v238q0 45 56 45zM541 1516h298q41 0 41 -45v-233q-7 -45 -46 -45h-293q-45 0 -45 75v174q0 74 45 74zM936 1516h293q40 0 50 -54v-229q-20 -40 -50 -40h-293q-46 0 -46 55
v214q0 54 46 54zM152 1183h278q55 0 55 -54v-219q0 -55 -55 -55h-268q-61 0 -61 50v219q0 59 51 59zM566 682h238q81 0 81 -45v-244q0 -39 -46 -39h-288q-45 6 -45 44v239q0 45 60 45zM981 682h233q65 0 65 -75v-99l-5 -5l5 -5v-5l-5 -5l5 -30q0 -104 -45 -104h-293
q-46 6 -46 44v239q0 45 86 45zM177 334h248q59 0 71 -30v-258q0 -40 -51 -40h-283q-46 6 -46 45v238q0 45 61 45zM551 329h294q45 -7 45 -45v-228q0 -50 -40 -50h-314q-30 12 -30 70v193q0 60 45 60zM951 329h283q45 -7 45 -45v-238q0 -40 -40 -40h-314q-30 12 -30 70v193
q0 60 56 60z" />
    <glyph glyph-name="q" unicode="q" horiz-adv-x="1700" 
d="M146 1861h282q38 0 38 -38v-235q0 -43 -62 -43v5l-5 -5h-210q-82 0 -82 43v244q12 29 39 29zM528 1861h278q36 0 43 -48v-196q0 -72 -67 -72h-201q-96 0 -96 43v230q7 43 43 43zM911 1861h273q26 0 38 -29v-244q0 -38 -52 -43v5l-5 -5h-163q-134 0 -134 24l-5 19v235
q0 38 48 38zM136 1521h273q43 0 43 -38v-249l-24 -24h-297q-38 0 -38 39v229q6 43 43 43zM906 1512h278q36 0 43 -48v-196q0 -56 -29 -67h-296q-39 0 -39 48v220q7 43 43 43zM146 1182h277q38 0 38 -39v-234q0 -38 -38 -38h-282q-26 0 -38 28v254q16 29 43 29zM524 1182h277
q43 0 43 -53v-206q0 -37 -29 -52h-306q-28 16 -28 43v215q0 53 43 53zM897 1182h277q43 0 43 -39v-234q0 -38 -38 -38h-282q-38 0 -38 38v234q0 39 38 39zM1280 1182h277q38 0 38 -39v-234q0 -38 -38 -38h-282q-38 0 -38 38v230q6 43 43 43zM136 306h278q43 0 43 -67v-177
q0 -56 -29 -67h-297q-38 0 -38 43v225q6 43 43 43zM509 306h278q43 -6 43 -43v-220q0 -48 -38 -48h-297q-29 11 -29 67v196q7 48 43 48zM892 306h278q43 0 43 -53v-215q0 -43 -39 -43h-287q-38 0 -38 48v220q6 43 43 43zM1265 306h278q43 -6 43 -43v-230q0 -38 -38 -38h-297
q-29 11 -29 67v187q0 57 43 57z" />
    <glyph glyph-name="r" unicode="r" horiz-adv-x="1401" 
d="M142 1862h290q40 0 40 -40v-245q0 -45 -85 -45h-230q-60 0 -60 45v240q6 45 45 45zM537 1862h289q40 0 40 -40v-260q0 -30 -95 -30h-205q-74 0 -74 45v255q17 30 45 30zM946 1862h290q45 -6 45 -45v-235q0 -50 -85 -50h-160q-130 0 -130 30l-5 20v225q0 55 45 55z
M137 1507h295q40 0 40 -40v-244q0 -40 -40 -40h-290q-45 6 -45 45v239q0 40 40 40zM427 1168q50 -9 50 -45v-245q0 -40 -50 -40h-280q-45 7 -45 45v240q0 40 40 40h265zM601 683h240q60 0 60 -45v-244q0 -28 -30 -40h-300q-44 6 -44 45v239q0 45 74 45zM1151 683
q135 0 135 -30v-269q-18 -30 -45 -30h-285q-45 6 -45 45v239q0 45 105 45h135zM202 334h245q58 0 70 -30v-260q0 -40 -40 -40h-290q-45 6 -45 45v240q0 45 60 45zM571 329h290q45 -7 45 -45v-230q0 -50 -40 -50h-309q-30 16 -30 55v210q0 60 44 60zM956 329h290
q45 -7 45 -45v-240q0 -40 -40 -40h-310q-30 16 -30 55v210q0 60 45 60z" />
    <glyph glyph-name="s" unicode="s" horiz-adv-x="1397" 
d="M516 1854h299q30 -13 30 -40v-244q0 -18 -20 -40l-135 -5h-159l-5 5l-5 -5h-5q-45 10 -45 45v254q17 30 45 30zM914 1854h299q30 -13 30 -40v-244q0 -18 -20 -40l-134 -5h-110q-110 0 -110 40v259q18 30 45 30zM560 1505h105l175 -5q25 -21 25 -70v-194q0 -60 -45 -60
h-289q-45 7 -45 45v229q0 55 74 55zM147 1156h264q39 0 55 -30v-259q0 -40 -55 -40h-264q-55 0 -55 45v239q0 45 55 45zM551 1156h264q39 0 54 -30v-269q-17 -30 -44 -30h-274q-55 0 -55 45v239q0 45 55 45zM949 663h284q28 0 45 -30v-254q0 -42 -55 -45l-5 5l-25 -5h-204
q-85 0 -85 45v239q7 45 45 45zM182 329h244q75 0 75 -50v-234q-7 -45 -45 -45h-279q-55 0 -55 60v209q0 60 60 60zM556 324h284q44 0 44 -40v-259l-24 -25h-309q-40 0 -40 40v239q6 45 45 45zM939 324h279q50 0 50 -40v-259l-25 -25h-309q-40 0 -40 40v239q7 45 45 45z" />
    <glyph glyph-name="t" unicode="t" horiz-adv-x="1401" 
d="M144 1858h272q27 0 45 -30v-267q-18 -30 -45 -30h-272q-55 0 -55 44v238q0 45 55 45zM515 1858h288q44 -6 44 -45v-238q0 -44 -74 -44h-203q-94 0 -94 39v248q0 40 39 40zM907 1858h287q45 0 45 -59v-184q0 -59 -25 -79l-134 -5h-153l-5 5l-5 -5q-55 0 -55 54v228
q7 45 45 45zM530 1526h263q54 0 54 -45v-253q-15 -29 -54 -29h-273q-44 6 -44 44v238q0 45 54 45zM530 1184h273q44 -7 44 -45v-238q0 -44 -54 -44h-263q-54 0 -54 44v238q0 45 54 45zM163 678h243q58 0 70 -30v-267q-18 -30 -45 -30h-273q-54 0 -54 45v238q0 44 59 44z
M917 663h282q45 0 45 -39v-258q0 -27 -79 -30h-208q-85 0 -85 45v238q7 44 45 44zM158 341h263q39 0 55 -30v-257q0 -40 -45 -40h-283q-44 6 -44 45v237q0 45 54 45zM917 326h282q45 0 45 -39v-258l-25 -25h-307q-40 0 -40 40v238q7 44 45 44z" />
    <glyph glyph-name="u" unicode="u" horiz-adv-x="1397" 
d="M142 1854h289q40 0 40 -40v-244q-7 -45 -45 -45l-25 5h-199l-45 -5q-60 0 -60 45v239q6 45 45 45zM954 1854h289q28 0 40 -30v-254q0 -42 -60 -45l-25 5h-209l-30 -5q-50 8 -50 45v254q18 30 45 30zM152 1505h289q38 0 45 -50v-219q0 -39 -30 -55h-319q-30 18 -30 45v224
q0 55 45 55zM964 1505h289q45 0 45 -75v-94l-5 -135l-25 -20h-309q-40 0 -40 45v224q0 55 45 55zM172 1156h264q39 0 55 -30v-269q-18 -30 -45 -30h-274q-55 0 -55 45v239q0 45 55 45zM575 1156h265q39 0 54 -30v-269q-17 -30 -44 -30h-275q-54 0 -54 45v239q0 45 54 45z
M979 1156h269q39 0 55 -30v-269q-17 -30 -45 -30h-274q-55 0 -55 45v239q0 38 50 45zM466 329q60 0 60 -45v-239q-7 -45 -45 -45h-289q-45 0 -45 60v194q0 75 70 75h249zM580 324h280q49 0 49 -40v-259l-25 -25h-309q-39 0 -39 40v239q6 45 44 45zM964 324h299
q30 -13 30 -40v-259l-25 -25h-309q-40 0 -40 40v239q7 45 45 45z" />
    <glyph glyph-name="v" unicode="v" horiz-adv-x="1405" 
d="M138 1859h289q40 0 40 -40v-244q-7 -45 -45 -45l-25 5h-199l-45 -5q-60 0 -60 45v239q6 45 45 45zM935 1859h304q40 0 40 -40v-244q0 -42 -60 -45l-25 5h-209l-30 -5q-50 8 -50 45v254zM148 1510h289q38 0 45 -50v-219q0 -39 -30 -55h-319q-30 18 -30 45v224q0 55 45 55z
M960 1510h289q40 0 40 -45h10v-244q-10 0 -20 -25l-15 -10h-309q-40 0 -40 45v224q0 55 45 55zM571 1161h265q39 0 54 -30v-269q-17 -30 -44 -30h-275q-54 0 -54 45v239q0 45 54 45zM272 673h175l5 -5l5 5q60 0 60 -50v-234q-7 -45 -45 -45h-284q-50 0 -50 60v194
q0 70 55 70zM1224 673q39 0 75 -20v-289l-45 -20h-279q-55 0 -55 60v194q0 75 70 75h234zM462 334q60 0 60 -45v-239q-7 -45 -45 -45h-289q-45 0 -45 60v194q0 75 70 75h249zM576 329h280q49 0 49 -40v-259l-25 -25h-309q-39 0 -39 40v239q6 45 44 45zM960 329h299
q30 -13 30 -40v-259l-25 -25h-309q-40 0 -40 40v239q7 45 45 45z" />
    <glyph glyph-name="w" unicode="w" horiz-adv-x="2205" 
d="M1750 1866h289q39 0 39 -40v-244q0 -45 -69 -45v5l-5 -5h-224q-75 0 -75 45v254q17 30 45 30zM122 1856h304q39 0 39 -40v-259l-24 -25h-309q-40 0 -40 40v254zM938 1856h289q45 -6 45 -45v-234q0 -45 -40 -45h-309q-29 16 -29 55v209q0 60 44 60zM1337 1513h318
q30 -18 30 -45v-234q-6 -45 -45 -45h-288q-45 0 -45 55v214q0 39 30 55zM1745 1513h309q34 0 34 -35v-264q-12 -25 -39 -25h-289q-45 0 -45 55v214q0 39 30 55zM152 1508h209q104 0 104 -35v-254q0 -40 -39 -40h-289q-45 6 -45 45v239q0 45 60 45zM585 1508h214l20 -5l5 5h5
q25 0 45 -30v-259q0 -40 -40 -40h-289q-45 6 -45 45v239q0 45 85 45zM963 1508v-5l5 5h244l5 -5l5 5h5q55 -12 55 -30v-259q0 -40 -40 -40h-289q-45 6 -45 45v239q0 39 55 45zM1386 1169h234q58 0 70 -30v-269q-17 -30 -45 -30h-283q-45 7 -45 45v239q0 45 69 45zM555 1159
h274q55 0 55 -45v-239q0 -45 -55 -45h-274q-45 0 -50 60v194q0 75 50 75zM211 333h234l5 -5l5 5h5q33 0 50 -30v-259q0 -40 -40 -40h-288q-45 6 -45 45v239q0 45 74 45zM1745 333h259q60 0 60 -45v-239q-7 -45 -45 -45h-299l-30 30v269q16 30 55 30zM948 328h289
q45 -7 45 -45v-239q0 -40 -40 -40h-309q-29 0 -29 95v144q0 85 44 85z" />
    <glyph glyph-name="x" unicode="x" horiz-adv-x="1401" 
d="M133 1858h289q40 0 40 -40v-259q0 -27 -80 -30h-234q-60 0 -60 45v239q6 45 45 45zM900 1853h289q40 0 40 -40v-259q0 -30 -129 -30h-155l-30 5l-5 -5h-5q-49 8 -49 45v239q6 45 44 45zM527 1519h279q50 0 50 -60v-209q0 -60 -50 -60h-279q-50 0 -50 55v219q0 55 50 55z
M158 1185h264q55 0 55 -45v-239q-7 -45 -45 -45h-274q-39 0 -55 30v254q0 45 55 45zM925 1180h264q55 0 55 -45v-239q0 -45 -55 -45h-264q-55 0 -55 45v239q0 45 55 45zM556 667h280q44 -7 44 -45v-234q-6 -50 -49 -50l-5 5l-25 -5h-230l-5 5l-5 -5h-5q-51 0 -54 60v219
q0 50 54 50zM173 333h244q70 0 70 -45v-244q0 -40 -45 -40h-284q-45 6 -45 45v239q0 45 60 45zM542 328h289q44 -7 44 -45v-234q0 -45 -39 -45h-309q-30 16 -30 55v219q7 50 45 50zM925 328h289q27 0 40 -25v-279q-8 -20 -35 -20h-309q-30 16 -30 55v209q0 60 45 60z" />
    <glyph glyph-name="y" unicode="y" horiz-adv-x="1372" 
d="M142 1866h305q28 0 46 -30v-259q0 -46 -107 -46h-188q-87 0 -87 46v248q0 28 31 41zM885 1861h280q56 0 56 -46v-233q0 -56 -56 -56h-280q-51 0 -51 61v223q7 51 51 51zM519 1551h305q31 -12 31 -40v-249q0 -40 -41 -40h-301q-40 0 -40 40v244q6 45 46 45zM539 1206v-5
l5 5h249l6 -5l5 5q61 0 61 -81v-142q0 -111 -41 -111h-300q-46 6 -46 45v244q0 45 61 45zM157 339h250q59 0 71 -31v-263q0 -41 -46 -41h-290q-46 7 -46 46v243q0 46 61 46zM926 334h295q28 0 41 -26v-268q0 -36 -36 -36h-315q-31 16 -31 56v223q7 51 46 51z" />
    <glyph glyph-name="z" unicode="z" horiz-adv-x="1405" 
d="M146 1854h289q40 0 40 -40v-259q-16 -30 -55 -30h-249q-70 0 -70 45v239q6 45 45 45zM540 1854h274q50 0 50 -55v-219q0 -55 -50 -55h-274q-55 0 -55 55v224q0 50 55 50zM540 1515h269q60 0 60 -50v-224q0 -55 -55 -55h-269q-55 0 -55 55v224q6 50 50 50zM530 1176h304
q44 0 44 -70v-184q0 -70 -44 -70h-304q-30 18 -30 45v234q0 28 30 45zM983 1176h204q58 0 70 -30v-259q0 -40 -40 -40h-289q-45 7 -45 45v239q0 45 100 45zM181 668h259q60 0 60 -55v-229q-7 -45 -45 -45h-279q-55 0 -55 50v219q0 60 60 60zM171 324h279q50 0 50 -40v-259
l-25 -25h-324q-25 13 -25 40v254q17 30 45 30z" />
    <glyph glyph-name="braceleft" unicode="{" horiz-adv-x="684" 
 />
    <glyph glyph-name="bar" unicode="|" horiz-adv-x="532" 
 />
    <glyph glyph-name="braceright" unicode="}" horiz-adv-x="684" 
 />
    <glyph glyph-name="asciitilde" unicode="~" horiz-adv-x="1196" 
 />
    <glyph glyph-name="Adieresis" unicode="&#xc4;" horiz-adv-x="1366" 
 />
    <glyph glyph-name="Aring" unicode="&#xc5;" horiz-adv-x="1366" 
 />
    <glyph glyph-name="Ccedilla" unicode="&#xc7;" horiz-adv-x="1479" 
 />
    <glyph glyph-name="Eacute" unicode="&#xc9;" horiz-adv-x="1366" 
 />
    <glyph glyph-name="Ntilde" unicode="&#xd1;" horiz-adv-x="1362" 
d="M133 1866h290q40 0 40 -40v-260q0 -30 -105 -30h-160l-45 5l-20 -5q-45 10 -45 45v240q6 45 45 45zM528 1866h276q50 0 50 -60v-220q-7 -50 -50 -50h-276q-55 0 -55 55v220q0 55 55 55zM904 1861h290q40 0 40 -40v-260q0 -30 -95 -30h-195l-30 5l-5 -5h-5q-45 10 -45 45
v240q6 45 45 45zM138 1526h280q50 0 50 -40v-246q0 -27 -25 -40h-310q-40 0 -40 40v241q6 45 45 45zM909 1521h285q45 0 45 -40v-246q0 -27 -25 -40h-310q-40 0 -40 40v241q6 45 45 45zM158 1190h265q55 0 55 -45v-240q-6 -45 -45 -45h-275q-39 0 -55 30v255q0 45 55 45z
M929 1185h265q55 0 55 -45v-240q0 -45 -55 -45h-265q-55 0 -55 45v240q0 45 55 45zM554 675h290q45 -7 45 -45v-236q0 -50 -90 -50h-225l-5 5l-5 -5q-52 0 -56 60v221q7 50 46 50zM173 334h245q70 0 70 -45v-245q0 -40 -45 -40h-285q-45 6 -45 45v240q0 45 60 45zM543 329
h291q45 -6 45 -45v-235q0 -45 -40 -45h-311q-30 16 -30 55v220q7 50 45 50zM929 329h290q27 0 40 -25v-280q-8 -20 -35 -20h-310q-30 16 -30 55v210q0 60 45 60zM131 2271h290q40 0 40 -40v-260q0 -30 -105 -30h-160l-45 5l-20 -5q-45 10 -45 45v240q6 45 45 45zM517 2271
h290q40 0 40 -40v-260q0 -30 -105 -30h-160l-45 5l-20 -5q-45 10 -45 45v240q6 45 45 45zM905 2266h290q40 0 40 -40v-260q0 -30 -105 -30h-160l-45 5l-20 -5q-45 10 -45 45v240q6 45 45 45z" />
    <glyph glyph-name="Odieresis" unicode="&#xd6;" horiz-adv-x="1593" 
 />
    <glyph glyph-name="Udieresis" unicode="&#xdc;" horiz-adv-x="1479" 
 />
    <glyph glyph-name="aacute" unicode="&#xe1;" 
 />
    <glyph glyph-name="agrave" unicode="&#xe0;" 
 />
    <glyph glyph-name="acircumflex" unicode="&#xe2;" 
 />
    <glyph glyph-name="adieresis" unicode="&#xe4;" 
 />
    <glyph glyph-name="atilde" unicode="&#xe3;" 
 />
    <glyph glyph-name="aring" unicode="&#xe5;" 
 />
    <glyph glyph-name="ccedilla" unicode="&#xe7;" horiz-adv-x="1024" 
 />
    <glyph glyph-name="eacute" unicode="&#xe9;" 
 />
    <glyph glyph-name="egrave" unicode="&#xe8;" 
 />
    <glyph glyph-name="ecircumflex" unicode="&#xea;" 
 />
    <glyph glyph-name="edieresis" unicode="&#xeb;" 
 />
    <glyph glyph-name="iacute" unicode="&#xed;" horiz-adv-x="569" 
 />
    <glyph glyph-name="igrave" unicode="&#xec;" horiz-adv-x="569" 
 />
    <glyph glyph-name="icircumflex" unicode="&#xee;" horiz-adv-x="569" 
 />
    <glyph glyph-name="idieresis" unicode="&#xef;" horiz-adv-x="569" 
 />
    <glyph glyph-name="ntilde" unicode="&#xf1;" horiz-adv-x="1362" 
d="M133 1866h290q40 0 40 -40v-260q0 -30 -105 -30h-160l-45 5l-20 -5q-45 10 -45 45v240q6 45 45 45zM528 1866h276q50 0 50 -60v-220q-7 -50 -50 -50h-276q-55 0 -55 55v220q0 55 55 55zM904 1861h290q40 0 40 -40v-260q0 -30 -95 -30h-195l-30 5l-5 -5h-5q-45 10 -45 45
v240q6 45 45 45zM138 1526h280q50 0 50 -40v-246q0 -27 -25 -40h-310q-40 0 -40 40v241q6 45 45 45zM909 1521h285q45 0 45 -40v-246q0 -27 -25 -40h-310q-40 0 -40 40v241q6 45 45 45zM158 1190h265q55 0 55 -45v-240q-6 -45 -45 -45h-275q-39 0 -55 30v255q0 45 55 45z
M929 1185h265q55 0 55 -45v-240q0 -45 -55 -45h-265q-55 0 -55 45v240q0 45 55 45zM554 675h290q45 -7 45 -45v-236q0 -50 -90 -50h-225l-5 5l-5 -5q-52 0 -56 60v221q7 50 46 50zM173 334h245q70 0 70 -45v-245q0 -40 -45 -40h-285q-45 6 -45 45v240q0 45 60 45zM543 329
h291q45 -6 45 -45v-235q0 -45 -40 -45h-311q-30 16 -30 55v220q7 50 45 50zM929 329h290q27 0 40 -25v-280q-8 -20 -35 -20h-310q-30 16 -30 55v210q0 60 45 60zM131 2271h290q40 0 40 -40v-260q0 -30 -105 -30h-160l-45 5l-20 -5q-45 10 -45 45v240q6 45 45 45zM517 2271
h290q40 0 40 -40v-260q0 -30 -105 -30h-160l-45 5l-20 -5q-45 10 -45 45v240q6 45 45 45zM905 2266h290q40 0 40 -40v-260q0 -30 -105 -30h-160l-45 5l-20 -5q-45 10 -45 45v240q6 45 45 45z" />
    <glyph glyph-name="oacute" unicode="&#xf3;" 
 />
    <glyph glyph-name="ograve" unicode="&#xf2;" 
 />
    <glyph glyph-name="ocircumflex" unicode="&#xf4;" 
 />
    <glyph glyph-name="odieresis" unicode="&#xf6;" 
 />
    <glyph glyph-name="otilde" unicode="&#xf5;" 
 />
    <glyph glyph-name="uacute" unicode="&#xfa;" 
 />
    <glyph glyph-name="ugrave" unicode="&#xf9;" 
 />
    <glyph glyph-name="ucircumflex" unicode="&#xfb;" 
 />
    <glyph glyph-name="udieresis" unicode="&#xfc;" 
 />
    <glyph glyph-name="dagger" unicode="&#x2020;" 
 />
    <glyph glyph-name="degree" unicode="&#xb0;" horiz-adv-x="819" 
 />
    <glyph glyph-name="cent" unicode="&#xa2;" 
 />
    <glyph glyph-name="sterling" unicode="&#xa3;" 
 />
    <glyph glyph-name="section" unicode="&#xa7;" 
 />
    <glyph glyph-name="bullet" unicode="&#x2022;" horiz-adv-x="717" 
 />
    <glyph glyph-name="paragraph" unicode="&#xb6;" horiz-adv-x="1100" 
 />
    <glyph glyph-name="germandbls" unicode="&#xdf;" horiz-adv-x="1251" 
 />
    <glyph glyph-name="registered" unicode="&#xae;" horiz-adv-x="1509" 
 />
    <glyph glyph-name="copyright" unicode="&#xa9;" horiz-adv-x="1509" 
 />
    <glyph glyph-name="trademark" unicode="&#x2122;" horiz-adv-x="2048" 
 />
    <glyph glyph-name="acute" unicode="&#xb4;" horiz-adv-x="682" 
 />
    <glyph glyph-name="dieresis" unicode="&#xa8;" horiz-adv-x="682" 
 />
    <glyph glyph-name="notequal" unicode="&#x2260;" horiz-adv-x="1124" 
 />
    <glyph glyph-name="AE" unicode="&#xc6;" horiz-adv-x="2048" 
 />
    <glyph glyph-name="Oslash" unicode="&#xd8;" horiz-adv-x="1593" 
 />
    <glyph glyph-name="infinity" unicode="&#x221e;" horiz-adv-x="1460" 
 />
    <glyph glyph-name="plusminus" unicode="&#xb1;" horiz-adv-x="1124" 
 />
    <glyph glyph-name="lessequal" unicode="&#x2264;" horiz-adv-x="1124" 
 />
    <glyph glyph-name="greaterequal" unicode="&#x2265;" horiz-adv-x="1124" 
 />
    <glyph glyph-name="yen" unicode="&#xa5;" 
 />
    <glyph glyph-name="mu" unicode="&#xb5;" horiz-adv-x="1180" 
 />
    <glyph glyph-name="partialdiff" unicode="&#x2202;" horiz-adv-x="1012" 
 />
    <glyph glyph-name="summation" unicode="&#x2211;" horiz-adv-x="1460" 
 />
    <glyph glyph-name="product" unicode="&#x220f;" horiz-adv-x="1686" 
 />
    <glyph glyph-name="glyph155" horiz-adv-x="1124" 
 />
    <glyph glyph-name="integral" unicode="&#x222b;" horiz-adv-x="561" 
 />
    <glyph glyph-name="ordfeminine" unicode="&#xaa;" horiz-adv-x="758" 
 />
    <glyph glyph-name="ordmasculine" unicode="&#xba;" horiz-adv-x="748" 
 />
    <glyph glyph-name="Omega" unicode="&#x2126;" horiz-adv-x="1573" 
 />
    <glyph glyph-name="ae" unicode="&#xe6;" horiz-adv-x="1821" 
 />
    <glyph glyph-name="oslash" unicode="&#xf8;" horiz-adv-x="1251" 
 />
    <glyph glyph-name="questiondown" unicode="&#xbf;" horiz-adv-x="1251" 
 />
    <glyph glyph-name="exclamdown" unicode="&#xa1;" horiz-adv-x="682" 
 />
    <glyph glyph-name="logicalnot" unicode="&#xac;" horiz-adv-x="1196" 
 />
    <glyph glyph-name="radical" unicode="&#x221a;" horiz-adv-x="1124" 
 />
    <glyph glyph-name="florin" unicode="&#x192;" 
 />
    <glyph glyph-name="approxequal" unicode="&#x2248;" horiz-adv-x="1124" 
 />
    <glyph glyph-name="Delta" unicode="&#x2206;" horiz-adv-x="1253" 
 />
    <glyph glyph-name="guillemotleft" unicode="&#xab;" 
 />
    <glyph glyph-name="guillemotright" unicode="&#xbb;" 
 />
    <glyph glyph-name="ellipsis" unicode="&#x2026;" horiz-adv-x="2048" 
 />
    <glyph glyph-name="Agrave" unicode="&#xc0;" horiz-adv-x="1366" 
 />
    <glyph glyph-name="Atilde" unicode="&#xc3;" horiz-adv-x="1366" 
 />
    <glyph glyph-name="Otilde" unicode="&#xd5;" horiz-adv-x="1593" 
 />
    <glyph glyph-name="OE" unicode="&#x152;" horiz-adv-x="2048" 
 />
    <glyph glyph-name="oe" unicode="&#x153;" horiz-adv-x="1933" 
 />
    <glyph glyph-name="endash" unicode="&#x2013;" 
 />
    <glyph glyph-name="emdash" unicode="&#x2014;" horiz-adv-x="2048" 
 />
    <glyph glyph-name="quotedblleft" unicode="&#x201c;" horiz-adv-x="682" 
 />
    <glyph glyph-name="quotedblright" unicode="&#x201d;" horiz-adv-x="682" 
 />
    <glyph glyph-name="quoteleft" unicode="&#x2018;" horiz-adv-x="455" 
 />
    <glyph glyph-name="quoteright" unicode="&#x2019;" horiz-adv-x="455" 
 />
    <glyph glyph-name="divide" unicode="&#xf7;" horiz-adv-x="1124" 
 />
    <glyph glyph-name="lozenge" unicode="&#x25ca;" horiz-adv-x="1012" 
 />
    <glyph glyph-name="ydieresis" unicode="&#xff;" horiz-adv-x="1024" 
 />
    <glyph glyph-name="Ydieresis" unicode="&#x178;" horiz-adv-x="1366" 
 />
    <glyph glyph-name="fraction" unicode="&#x2044;" horiz-adv-x="342" 
 />
    <glyph glyph-name="fraction" unicode="&#x2215;" horiz-adv-x="342" 
 />
    <glyph glyph-name="Euro" unicode="&#x20ac;" 
 />
    <glyph glyph-name="guilsinglleft" unicode="&#x2039;" horiz-adv-x="682" 
 />
    <glyph glyph-name="guilsinglright" unicode="&#x203a;" horiz-adv-x="682" 
 />
    <glyph glyph-name="uniF001" unicode="&#xf001;" horiz-adv-x="1024" 
 />
    <glyph glyph-name="uniF001" unicode="&#xfb01;" horiz-adv-x="1024" 
 />
    <glyph glyph-name="uniF002" unicode="&#xf002;" horiz-adv-x="1024" 
 />
    <glyph glyph-name="uniF002" unicode="&#xfb02;" horiz-adv-x="1024" 
 />
    <glyph glyph-name="daggerdbl" unicode="&#x2021;" 
 />
    <glyph glyph-name="periodcentered" unicode="&#xb7;" horiz-adv-x="569" 
 />
    <glyph glyph-name="periodcentered" unicode="&#x2219;" horiz-adv-x="569" 
 />
    <glyph glyph-name="quotesinglbase" unicode="&#x201a;" horiz-adv-x="455" 
 />
    <glyph glyph-name="quotedblbase" unicode="&#x201e;" horiz-adv-x="682" 
 />
    <glyph glyph-name="perthousand" unicode="&#x2030;" horiz-adv-x="2048" 
 />
    <glyph glyph-name="Acircumflex" unicode="&#xc2;" horiz-adv-x="1366" 
 />
    <glyph glyph-name="Ecircumflex" unicode="&#xca;" horiz-adv-x="1366" 
 />
    <glyph glyph-name="Aacute" unicode="&#xc1;" horiz-adv-x="1366" 
 />
    <glyph glyph-name="Edieresis" unicode="&#xcb;" horiz-adv-x="1366" 
 />
    <glyph glyph-name="Egrave" unicode="&#xc8;" horiz-adv-x="1366" 
 />
    <glyph glyph-name="Iacute" unicode="&#xcd;" horiz-adv-x="569" 
 />
    <glyph glyph-name="Icircumflex" unicode="&#xce;" horiz-adv-x="569" 
 />
    <glyph glyph-name="Idieresis" unicode="&#xcf;" horiz-adv-x="569" 
 />
    <glyph glyph-name="Igrave" unicode="&#xcc;" horiz-adv-x="569" 
 />
    <glyph glyph-name="Oacute" unicode="&#xd3;" horiz-adv-x="1593" 
 />
    <glyph glyph-name="Ocircumflex" unicode="&#xd4;" horiz-adv-x="1593" 
 />
    <glyph glyph-name="Ograve" unicode="&#xd2;" horiz-adv-x="1593" 
 />
    <glyph glyph-name="Uacute" unicode="&#xda;" horiz-adv-x="1479" 
 />
    <glyph glyph-name="Ucircumflex" unicode="&#xdb;" horiz-adv-x="1479" 
 />
    <glyph glyph-name="Ugrave" unicode="&#xd9;" horiz-adv-x="1479" 
 />
    <glyph glyph-name="dotlessi" unicode="&#x131;" horiz-adv-x="569" 
 />
    <glyph glyph-name="circumflex" unicode="&#x2c6;" horiz-adv-x="682" 
 />
    <glyph glyph-name="tilde" unicode="&#x2dc;" horiz-adv-x="682" 
 />
    <glyph glyph-name="uni02C9" unicode="&#x2c9;" horiz-adv-x="682" 
 />
    <glyph glyph-name="breve" unicode="&#x2d8;" horiz-adv-x="682" 
 />
    <glyph glyph-name="dotaccent" unicode="&#x2d9;" horiz-adv-x="682" 
 />
    <glyph glyph-name="ring" unicode="&#x2da;" horiz-adv-x="682" 
 />
    <glyph glyph-name="cedilla" unicode="&#xb8;" horiz-adv-x="682" 
 />
    <glyph glyph-name="hungarumlaut" unicode="&#x2dd;" horiz-adv-x="682" 
 />
    <glyph glyph-name="ogonek" unicode="&#x2db;" horiz-adv-x="682" 
 />
    <glyph glyph-name="caron" unicode="&#x2c7;" horiz-adv-x="682" 
 />
    <glyph glyph-name="Lslash" unicode="&#x141;" 
 />
    <glyph glyph-name="lslash" unicode="&#x142;" horiz-adv-x="455" 
 />
    <glyph glyph-name="Scaron" unicode="&#x160;" horiz-adv-x="1366" 
 />
    <glyph glyph-name="scaron" unicode="&#x161;" horiz-adv-x="1024" 
 />
    <glyph glyph-name="Zcaron" unicode="&#x17d;" horiz-adv-x="1251" 
 />
    <glyph glyph-name="zcaron" unicode="&#x17e;" horiz-adv-x="1024" 
 />
    <glyph glyph-name="brokenbar" unicode="&#xa6;" horiz-adv-x="532" 
 />
    <glyph glyph-name="Eth" unicode="&#xd0;" horiz-adv-x="1479" 
 />
    <glyph glyph-name="eth" unicode="&#xf0;" 
 />
    <glyph glyph-name="Yacute" unicode="&#xdd;" horiz-adv-x="1366" 
 />
    <glyph glyph-name="yacute" unicode="&#xfd;" horiz-adv-x="1024" 
 />
    <glyph glyph-name="Thorn" unicode="&#xde;" horiz-adv-x="1366" 
 />
    <glyph glyph-name="thorn" unicode="&#xfe;" 
 />
    <glyph glyph-name="minus" unicode="&#x2212;" horiz-adv-x="1196" 
 />
    <glyph glyph-name="multiply" unicode="&#xd7;" horiz-adv-x="1196" 
 />
    <glyph glyph-name="uni00B9" unicode="&#xb9;" horiz-adv-x="682" 
 />
    <glyph glyph-name="uni00B2" unicode="&#xb2;" horiz-adv-x="682" 
 />
    <glyph glyph-name="uni00B3" unicode="&#xb3;" horiz-adv-x="682" 
 />
    <glyph glyph-name="onehalf" unicode="&#xbd;" horiz-adv-x="1708" 
 />
    <glyph glyph-name="onequarter" unicode="&#xbc;" horiz-adv-x="1708" 
 />
    <glyph glyph-name="threequarters" unicode="&#xbe;" horiz-adv-x="1708" 
 />
    <glyph glyph-name="franc" unicode="&#x20a3;" 
 />
    <glyph glyph-name="Gbreve" unicode="&#x11e;" horiz-adv-x="1593" 
 />
    <glyph glyph-name="gbreve" unicode="&#x11f;" 
 />
    <glyph glyph-name="Idotaccent" unicode="&#x130;" horiz-adv-x="569" 
 />
    <glyph glyph-name="Scedilla" unicode="&#x15e;" horiz-adv-x="1366" 
 />
    <glyph glyph-name="scedilla" unicode="&#x15f;" horiz-adv-x="1024" 
 />
    <glyph glyph-name="Cacute" unicode="&#x106;" horiz-adv-x="1479" 
 />
    <glyph glyph-name="cacute" unicode="&#x107;" horiz-adv-x="1024" 
 />
    <glyph glyph-name="Ccaron" unicode="&#x10c;" horiz-adv-x="1479" 
 />
    <glyph glyph-name="ccaron" unicode="&#x10d;" horiz-adv-x="1024" 
 />
    <glyph glyph-name="dcroat" unicode="&#x111;" 
 />
    <glyph glyph-name="currency" unicode="&#xa4;" 
 />
    <glyph glyph-name="macron" unicode="&#xaf;" horiz-adv-x="1131" 
 />
    <glyph glyph-name="Amacron" unicode="&#x100;" horiz-adv-x="1366" 
 />
    <glyph glyph-name="amacron" unicode="&#x101;" 
 />
    <glyph glyph-name="Abreve" unicode="&#x102;" horiz-adv-x="1366" 
 />
    <glyph glyph-name="abreve" unicode="&#x103;" 
 />
    <glyph glyph-name="Aogonek" unicode="&#x104;" horiz-adv-x="1366" 
 />
    <glyph glyph-name="aogonek" unicode="&#x105;" 
 />
    <glyph glyph-name="Ccircumflex" unicode="&#x108;" horiz-adv-x="1479" 
 />
    <glyph glyph-name="ccircumflex" unicode="&#x109;" horiz-adv-x="1024" 
 />
    <glyph glyph-name="Cdotaccent" unicode="&#x10a;" horiz-adv-x="1479" 
 />
    <glyph glyph-name="cdotaccent" unicode="&#x10b;" horiz-adv-x="1024" 
 />
    <glyph glyph-name="Dcaron" unicode="&#x10e;" horiz-adv-x="1479" 
 />
    <glyph glyph-name="dcaron" unicode="&#x10f;" horiz-adv-x="1259" 
 />
    <glyph glyph-name="Dcroat" unicode="&#x110;" horiz-adv-x="1479" 
 />
    <glyph glyph-name="Emacron" unicode="&#x112;" horiz-adv-x="1366" 
 />
    <glyph glyph-name="emacron" unicode="&#x113;" 
 />
    <glyph glyph-name="Ebreve" unicode="&#x114;" horiz-adv-x="1366" 
 />
    <glyph glyph-name="ebreve" unicode="&#x115;" 
 />
    <glyph glyph-name="Edotaccent" unicode="&#x116;" horiz-adv-x="1366" 
 />
    <glyph glyph-name="edotaccent" unicode="&#x117;" 
 />
    <glyph glyph-name="Eogonek" unicode="&#x118;" horiz-adv-x="1366" 
 />
    <glyph glyph-name="eogonek" unicode="&#x119;" 
 />
    <glyph glyph-name="Ecaron" unicode="&#x11a;" horiz-adv-x="1366" 
 />
    <glyph glyph-name="ecaron" unicode="&#x11b;" 
 />
    <glyph glyph-name="Gcircumflex" unicode="&#x11c;" horiz-adv-x="1593" 
 />
    <glyph glyph-name="gcircumflex" unicode="&#x11d;" 
 />
    <glyph glyph-name="Gdotaccent" unicode="&#x120;" horiz-adv-x="1593" 
 />
    <glyph glyph-name="gdotaccent" unicode="&#x121;" 
 />
    <glyph glyph-name="Gcommaaccent" unicode="&#x122;" horiz-adv-x="1593" 
 />
    <glyph glyph-name="gcommaaccent" unicode="&#x123;" 
 />
    <glyph glyph-name="Hcircumflex" unicode="&#x124;" horiz-adv-x="1479" 
 />
    <glyph glyph-name="hcircumflex" unicode="&#x125;" 
 />
    <glyph glyph-name="Hbar" unicode="&#x126;" horiz-adv-x="1479" 
 />
    <glyph glyph-name="hbar" unicode="&#x127;" 
 />
    <glyph glyph-name="Itilde" unicode="&#x128;" horiz-adv-x="569" 
 />
    <glyph glyph-name="itilde" unicode="&#x129;" horiz-adv-x="569" 
 />
    <glyph glyph-name="Imacron" unicode="&#x12a;" horiz-adv-x="569" 
 />
    <glyph glyph-name="imacron" unicode="&#x12b;" horiz-adv-x="569" 
 />
    <glyph glyph-name="Ibreve" unicode="&#x12c;" horiz-adv-x="569" 
 />
    <glyph glyph-name="ibreve" unicode="&#x12d;" horiz-adv-x="569" 
 />
    <glyph glyph-name="Iogonek" unicode="&#x12e;" horiz-adv-x="569" 
 />
    <glyph glyph-name="iogonek" unicode="&#x12f;" horiz-adv-x="455" 
 />
    <glyph glyph-name="IJ" unicode="&#x132;" horiz-adv-x="1505" 
 />
    <glyph glyph-name="ij" unicode="&#x133;" horiz-adv-x="909" 
 />
    <glyph glyph-name="Jcircumflex" unicode="&#x134;" horiz-adv-x="1024" 
 />
    <glyph glyph-name="jcircumflex" unicode="&#x135;" horiz-adv-x="455" 
 />
    <glyph glyph-name="Kcommaaccent" unicode="&#x136;" horiz-adv-x="1366" 
 />
    <glyph glyph-name="kcommaaccent" unicode="&#x137;" horiz-adv-x="1024" 
 />
    <glyph glyph-name="kgreenlandic" unicode="&#x138;" horiz-adv-x="1024" 
 />
    <glyph glyph-name="Lacute" unicode="&#x139;" 
 />
    <glyph glyph-name="lacute" unicode="&#x13a;" horiz-adv-x="455" 
 />
    <glyph glyph-name="Lcommaaccent" unicode="&#x13b;" 
 />
    <glyph glyph-name="lcommaaccent" unicode="&#x13c;" horiz-adv-x="455" 
 />
    <glyph glyph-name="Lcaron" unicode="&#x13d;" 
 />
    <glyph glyph-name="lcaron" unicode="&#x13e;" horiz-adv-x="597" 
 />
    <glyph glyph-name="Ldot" unicode="&#x13f;" 
 />
    <glyph glyph-name="ldot" unicode="&#x140;" horiz-adv-x="684" 
 />
    <glyph glyph-name="Nacute" unicode="&#x143;" horiz-adv-x="1479" 
 />
    <glyph glyph-name="nacute" unicode="&#x144;" 
 />
    <glyph glyph-name="Ncommaaccent" unicode="&#x145;" horiz-adv-x="1479" 
 />
    <glyph glyph-name="ncommaaccent" unicode="&#x146;" 
 />
    <glyph glyph-name="Ncaron" unicode="&#x147;" horiz-adv-x="1479" 
 />
    <glyph glyph-name="ncaron" unicode="&#x148;" 
 />
    <glyph glyph-name="napostrophe" unicode="&#x149;" horiz-adv-x="1237" 
 />
    <glyph glyph-name="Eng" unicode="&#x14a;" horiz-adv-x="1481" 
 />
    <glyph glyph-name="eng" unicode="&#x14b;" 
 />
    <glyph glyph-name="Omacron" unicode="&#x14c;" horiz-adv-x="1593" 
 />
    <glyph glyph-name="omacron" unicode="&#x14d;" 
 />
    <glyph glyph-name="Obreve" unicode="&#x14e;" horiz-adv-x="1593" 
 />
    <glyph glyph-name="obreve" unicode="&#x14f;" 
 />
    <glyph glyph-name="Ohungarumlaut" unicode="&#x150;" horiz-adv-x="1593" 
 />
    <glyph glyph-name="ohungarumlaut" unicode="&#x151;" 
 />
    <glyph glyph-name="Racute" unicode="&#x154;" horiz-adv-x="1479" 
 />
    <glyph glyph-name="racute" unicode="&#x155;" horiz-adv-x="682" 
 />
    <glyph glyph-name="Rcommaaccent" unicode="&#x156;" horiz-adv-x="1479" 
 />
    <glyph glyph-name="rcommaaccent" unicode="&#x157;" horiz-adv-x="682" 
 />
    <glyph glyph-name="Rcaron" unicode="&#x158;" horiz-adv-x="1479" 
 />
    <glyph glyph-name="rcaron" unicode="&#x159;" horiz-adv-x="682" 
 />
    <glyph glyph-name="Sacute" unicode="&#x15a;" horiz-adv-x="1366" 
 />
    <glyph glyph-name="sacute" unicode="&#x15b;" horiz-adv-x="1024" 
 />
    <glyph glyph-name="Scircumflex" unicode="&#x15c;" horiz-adv-x="1366" 
 />
    <glyph glyph-name="scircumflex" unicode="&#x15d;" horiz-adv-x="1024" 
 />
    <glyph glyph-name="Tcommaaccent" unicode="&#x162;" horiz-adv-x="1251" 
 />
    <glyph glyph-name="tcommaaccent" unicode="&#x163;" horiz-adv-x="569" 
 />
    <glyph glyph-name="Tcaron" unicode="&#x164;" horiz-adv-x="1251" 
 />
    <glyph glyph-name="tcaron" unicode="&#x165;" horiz-adv-x="768" 
 />
    <glyph glyph-name="Tbar" unicode="&#x166;" horiz-adv-x="1251" 
 />
    <glyph glyph-name="tbar" unicode="&#x167;" horiz-adv-x="569" 
 />
    <glyph glyph-name="Utilde" unicode="&#x168;" horiz-adv-x="1479" 
 />
    <glyph glyph-name="utilde" unicode="&#x169;" 
 />
    <glyph glyph-name="Umacron" unicode="&#x16a;" horiz-adv-x="1479" 
 />
    <glyph glyph-name="umacron" unicode="&#x16b;" 
 />
    <glyph glyph-name="Ubreve" unicode="&#x16c;" horiz-adv-x="1479" 
 />
    <glyph glyph-name="ubreve" unicode="&#x16d;" 
 />
    <glyph glyph-name="Uring" unicode="&#x16e;" horiz-adv-x="1479" 
 />
    <glyph glyph-name="uring" unicode="&#x16f;" 
 />
    <glyph glyph-name="Uhungarumlaut" unicode="&#x170;" horiz-adv-x="1479" 
 />
    <glyph glyph-name="uhungarumlaut" unicode="&#x171;" 
 />
    <glyph glyph-name="Uogonek" unicode="&#x172;" horiz-adv-x="1479" 
 />
    <glyph glyph-name="uogonek" unicode="&#x173;" 
 />
    <glyph glyph-name="Wcircumflex" unicode="&#x174;" horiz-adv-x="1933" 
 />
    <glyph glyph-name="wcircumflex" unicode="&#x175;" horiz-adv-x="1479" 
 />
    <glyph glyph-name="Ycircumflex" unicode="&#x176;" horiz-adv-x="1366" 
 />
    <glyph glyph-name="ycircumflex" unicode="&#x177;" horiz-adv-x="1024" 
 />
    <glyph glyph-name="Zacute" unicode="&#x179;" horiz-adv-x="1251" 
 />
    <glyph glyph-name="zacute" unicode="&#x17a;" horiz-adv-x="1024" 
 />
    <glyph glyph-name="Zdotaccent" unicode="&#x17b;" horiz-adv-x="1251" 
 />
    <glyph glyph-name="zdotaccent" unicode="&#x17c;" horiz-adv-x="1024" 
 />
    <glyph glyph-name="longs" unicode="&#x17f;" horiz-adv-x="455" 
 />
    <glyph glyph-name="Aringacute" unicode="&#x1fa;" horiz-adv-x="1366" 
 />
    <glyph glyph-name="aringacute" unicode="&#x1fb;" 
 />
    <glyph glyph-name="AEacute" unicode="&#x1fc;" horiz-adv-x="2048" 
 />
    <glyph glyph-name="aeacute" unicode="&#x1fd;" horiz-adv-x="1821" 
 />
    <glyph glyph-name="Oslashacute" unicode="&#x1fe;" horiz-adv-x="1593" 
 />
    <glyph glyph-name="oslashacute" unicode="&#x1ff;" horiz-adv-x="1251" 
 />
    <glyph glyph-name="tonos" unicode="&#x384;" horiz-adv-x="682" 
 />
    <glyph glyph-name="dieresistonos" unicode="&#x385;" horiz-adv-x="682" 
 />
    <glyph glyph-name="Alphatonos" unicode="&#x386;" horiz-adv-x="1367" 
 />
    <glyph glyph-name="anoteleia" unicode="&#x387;" horiz-adv-x="569" 
 />
    <glyph glyph-name="Epsilontonos" unicode="&#x388;" horiz-adv-x="1606" 
 />
    <glyph glyph-name="Etatonos" unicode="&#x389;" horiz-adv-x="1716" 
 />
    <glyph glyph-name="Iotatonos" unicode="&#x38a;" horiz-adv-x="786" 
 />
    <glyph glyph-name="Omicrontonos" unicode="&#x38c;" horiz-adv-x="1586" 
 />
    <glyph glyph-name="Upsilontonos" unicode="&#x38e;" horiz-adv-x="1752" 
 />
    <glyph glyph-name="Omegatonos" unicode="&#x38f;" horiz-adv-x="1541" 
 />
    <glyph glyph-name="iotadieresistonos" unicode="&#x390;" horiz-adv-x="455" 
 />
    <glyph glyph-name="Alpha" unicode="&#x391;" horiz-adv-x="1366" 
 />
    <glyph glyph-name="Beta" unicode="&#x392;" horiz-adv-x="1366" 
 />
    <glyph glyph-name="Gamma" unicode="&#x393;" horiz-adv-x="1128" 
 />
    <glyph glyph-name="uni0394" unicode="&#x394;" horiz-adv-x="1368" 
 />
    <glyph glyph-name="Epsilon" unicode="&#x395;" horiz-adv-x="1366" 
 />
    <glyph glyph-name="Zeta" unicode="&#x396;" horiz-adv-x="1251" 
 />
    <glyph glyph-name="Eta" unicode="&#x397;" horiz-adv-x="1479" 
 />
    <glyph glyph-name="Theta" unicode="&#x398;" horiz-adv-x="1593" 
 />
    <glyph glyph-name="Iota" unicode="&#x399;" horiz-adv-x="569" 
 />
    <glyph glyph-name="Kappa" unicode="&#x39a;" horiz-adv-x="1366" 
 />
    <glyph glyph-name="Lambda" unicode="&#x39b;" horiz-adv-x="1368" 
 />
    <glyph glyph-name="Mu" unicode="&#x39c;" horiz-adv-x="1706" 
 />
    <glyph glyph-name="Nu" unicode="&#x39d;" horiz-adv-x="1479" 
 />
    <glyph glyph-name="Xi" unicode="&#x39e;" horiz-adv-x="1331" 
 />
    <glyph glyph-name="Omicron" unicode="&#x39f;" horiz-adv-x="1593" 
 />
    <glyph glyph-name="Pi" unicode="&#x3a0;" horiz-adv-x="1479" 
 />
    <glyph glyph-name="Rho" unicode="&#x3a1;" horiz-adv-x="1366" 
 />
    <glyph glyph-name="Sigma" unicode="&#x3a3;" horiz-adv-x="1266" 
 />
    <glyph glyph-name="Tau" unicode="&#x3a4;" horiz-adv-x="1251" 
 />
    <glyph glyph-name="Upsilon" unicode="&#x3a5;" horiz-adv-x="1366" 
 />
    <glyph glyph-name="Phi" unicode="&#x3a6;" horiz-adv-x="1634" 
 />
    <glyph glyph-name="Chi" unicode="&#x3a7;" horiz-adv-x="1366" 
 />
    <glyph glyph-name="Psi" unicode="&#x3a8;" horiz-adv-x="1711" 
 />
    <glyph glyph-name="uni03A9" unicode="&#x3a9;" horiz-adv-x="1531" 
 />
    <glyph glyph-name="Iotadieresis" unicode="&#x3aa;" horiz-adv-x="569" 
 />
    <glyph glyph-name="Upsilondieresis" unicode="&#x3ab;" horiz-adv-x="1366" 
 />
    <glyph glyph-name="alphatonos" unicode="&#x3ac;" horiz-adv-x="1184" 
 />
    <glyph glyph-name="epsilontonos" unicode="&#x3ad;" horiz-adv-x="913" 
 />
    <glyph glyph-name="etatonos" unicode="&#x3ae;" 
 />
    <glyph glyph-name="iotatonos" unicode="&#x3af;" horiz-adv-x="455" 
 />
    <glyph glyph-name="upsilondieresistonos" unicode="&#x3b0;" horiz-adv-x="1120" 
 />
    <glyph glyph-name="alpha" unicode="&#x3b1;" horiz-adv-x="1184" 
 />
    <glyph glyph-name="beta" unicode="&#x3b2;" horiz-adv-x="1178" 
 />
    <glyph glyph-name="gamma" unicode="&#x3b3;" horiz-adv-x="1024" 
 />
    <glyph glyph-name="delta" unicode="&#x3b4;" horiz-adv-x="1140" 
 />
    <glyph glyph-name="epsilon" unicode="&#x3b5;" horiz-adv-x="913" 
 />
    <glyph glyph-name="zeta" unicode="&#x3b6;" horiz-adv-x="903" 
 />
    <glyph glyph-name="eta" unicode="&#x3b7;" 
 />
    <glyph glyph-name="theta" unicode="&#x3b8;" 
 />
    <glyph glyph-name="iota" unicode="&#x3b9;" horiz-adv-x="455" 
 />
    <glyph glyph-name="kappa" unicode="&#x3ba;" horiz-adv-x="1024" 
 />
    <glyph glyph-name="lambda" unicode="&#x3bb;" horiz-adv-x="1024" 
 />
    <glyph glyph-name="uni03BC" unicode="&#x3bc;" horiz-adv-x="1180" 
 />
    <glyph glyph-name="nu" unicode="&#x3bd;" horiz-adv-x="1024" 
 />
    <glyph glyph-name="xi" unicode="&#x3be;" horiz-adv-x="917" 
 />
    <glyph glyph-name="omicron" unicode="&#x3bf;" 
 />
    <glyph glyph-name="pi" unicode="&#x3c0;" horiz-adv-x="1413" 
 />
    <glyph glyph-name="rho" unicode="&#x3c1;" horiz-adv-x="1165" 
 />
    <glyph glyph-name="sigma1" unicode="&#x3c2;" horiz-adv-x="987" 
 />
    <glyph glyph-name="sigma" unicode="&#x3c3;" horiz-adv-x="1264" 
 />
    <glyph glyph-name="tau" unicode="&#x3c4;" horiz-adv-x="809" 
 />
    <glyph glyph-name="upsilon" unicode="&#x3c5;" horiz-adv-x="1120" 
 />
    <glyph glyph-name="phi" unicode="&#x3c6;" horiz-adv-x="1328" 
 />
    <glyph glyph-name="chi" unicode="&#x3c7;" horiz-adv-x="1075" 
 />
    <glyph glyph-name="psi" unicode="&#x3c8;" horiz-adv-x="1460" 
 />
    <glyph glyph-name="omega" unicode="&#x3c9;" horiz-adv-x="1599" 
 />
    <glyph glyph-name="iotadieresis" unicode="&#x3ca;" horiz-adv-x="455" 
 />
    <glyph glyph-name="upsilondieresis" unicode="&#x3cb;" horiz-adv-x="1120" 
 />
    <glyph glyph-name="omicrontonos" unicode="&#x3cc;" 
 />
    <glyph glyph-name="upsilontonos" unicode="&#x3cd;" horiz-adv-x="1120" 
 />
    <glyph glyph-name="omegatonos" unicode="&#x3ce;" horiz-adv-x="1599" 
 />
    <glyph glyph-name="afii10023" unicode="&#x401;" horiz-adv-x="1367" 
 />
    <glyph glyph-name="afii10051" unicode="&#x402;" horiz-adv-x="1771" 
 />
    <glyph glyph-name="afii10052" unicode="&#x403;" horiz-adv-x="1109" 
 />
    <glyph glyph-name="afii10053" unicode="&#x404;" horiz-adv-x="1472" 
 />
    <glyph glyph-name="afii10054" unicode="&#x405;" horiz-adv-x="1366" 
 />
    <glyph glyph-name="afii10055" unicode="&#x406;" horiz-adv-x="569" 
 />
    <glyph glyph-name="afii10056" unicode="&#x407;" horiz-adv-x="569" 
 />
    <glyph glyph-name="afii10057" unicode="&#x408;" horiz-adv-x="1024" 
 />
    <glyph glyph-name="afii10058" unicode="&#x409;" horiz-adv-x="2165" 
 />
    <glyph glyph-name="afii10059" unicode="&#x40a;" horiz-adv-x="2069" 
 />
    <glyph glyph-name="afii10060" unicode="&#x40b;" horiz-adv-x="1749" 
 />
    <glyph glyph-name="afii10061" unicode="&#x40c;" horiz-adv-x="1193" 
 />
    <glyph glyph-name="afii10062" unicode="&#x40e;" horiz-adv-x="1301" 
 />
    <glyph glyph-name="afii10145" unicode="&#x40f;" horiz-adv-x="1472" 
 />
    <glyph glyph-name="afii10017" unicode="&#x410;" horiz-adv-x="1366" 
 />
    <glyph glyph-name="afii10018" unicode="&#x411;" horiz-adv-x="1344" 
 />
    <glyph glyph-name="afii10019" unicode="&#x412;" horiz-adv-x="1366" 
 />
    <glyph glyph-name="afii10020" unicode="&#x413;" horiz-adv-x="1109" 
 />
    <glyph glyph-name="afii10021" unicode="&#x414;" horiz-adv-x="1387" 
 />
    <glyph glyph-name="afii10022" unicode="&#x415;" horiz-adv-x="1366" 
 />
    <glyph glyph-name="afii10024" unicode="&#x416;" horiz-adv-x="1891" 
 />
    <glyph glyph-name="afii10025" unicode="&#x417;" horiz-adv-x="1237" 
 />
    <glyph glyph-name="afii10026" unicode="&#x418;" horiz-adv-x="1472" 
 />
    <glyph glyph-name="afii10027" unicode="&#x419;" horiz-adv-x="1472" 
 />
    <glyph glyph-name="afii10028" unicode="&#x41a;" horiz-adv-x="1193" 
 />
    <glyph glyph-name="afii10029" unicode="&#x41b;" horiz-adv-x="1344" 
 />
    <glyph glyph-name="afii10030" unicode="&#x41c;" horiz-adv-x="1706" 
 />
    <glyph glyph-name="afii10031" unicode="&#x41d;" horiz-adv-x="1479" 
 />
    <glyph glyph-name="afii10032" unicode="&#x41e;" horiz-adv-x="1593" 
 />
    <glyph glyph-name="afii10033" unicode="&#x41f;" horiz-adv-x="1472" 
 />
    <glyph glyph-name="afii10034" unicode="&#x420;" horiz-adv-x="1366" 
 />
    <glyph glyph-name="afii10035" unicode="&#x421;" horiz-adv-x="1479" 
 />
    <glyph glyph-name="afii10036" unicode="&#x422;" horiz-adv-x="1251" 
 />
    <glyph glyph-name="afii10037" unicode="&#x423;" horiz-adv-x="1301" 
 />
    <glyph glyph-name="afii10038" unicode="&#x424;" horiz-adv-x="1557" 
 />
    <glyph glyph-name="afii10039" unicode="&#x425;" horiz-adv-x="1366" 
 />
    <glyph glyph-name="afii10040" unicode="&#x426;" horiz-adv-x="1515" 
 />
    <glyph glyph-name="afii10041" unicode="&#x427;" horiz-adv-x="1365" 
 />
    <glyph glyph-name="afii10042" unicode="&#x428;" horiz-adv-x="1877" 
 />
    <glyph glyph-name="afii10043" unicode="&#x429;" horiz-adv-x="1920" 
 />
    <glyph glyph-name="afii10044" unicode="&#x42a;" horiz-adv-x="1621" 
 />
    <glyph glyph-name="afii10045" unicode="&#x42b;" horiz-adv-x="1813" 
 />
    <glyph glyph-name="afii10046" unicode="&#x42c;" horiz-adv-x="1344" 
 />
    <glyph glyph-name="afii10047" unicode="&#x42d;" horiz-adv-x="1472" 
 />
    <glyph glyph-name="afii10048" unicode="&#x42e;" horiz-adv-x="2069" 
 />
    <glyph glyph-name="afii10049" unicode="&#x42f;" horiz-adv-x="1479" 
 />
    <glyph glyph-name="afii10065" unicode="&#x430;" 
 />
    <glyph glyph-name="afii10066" unicode="&#x431;" horiz-adv-x="1173" 
 />
    <glyph glyph-name="afii10067" unicode="&#x432;" horiz-adv-x="1088" 
 />
    <glyph glyph-name="afii10068" unicode="&#x433;" horiz-adv-x="747" 
 />
    <glyph glyph-name="afii10069" unicode="&#x434;" horiz-adv-x="1195" 
 />
    <glyph glyph-name="afii10070" unicode="&#x435;" 
 />
    <glyph glyph-name="afii10072" unicode="&#x436;" horiz-adv-x="1370" 
 />
    <glyph glyph-name="afii10073" unicode="&#x437;" horiz-adv-x="939" 
 />
    <glyph glyph-name="afii10074" unicode="&#x438;" horiz-adv-x="1144" 
 />
    <glyph glyph-name="afii10075" unicode="&#x439;" horiz-adv-x="1144" 
 />
    <glyph glyph-name="afii10076" unicode="&#x43a;" horiz-adv-x="896" 
 />
    <glyph glyph-name="afii10077" unicode="&#x43b;" horiz-adv-x="1195" 
 />
    <glyph glyph-name="afii10078" unicode="&#x43c;" horiz-adv-x="1408" 
 />
    <glyph glyph-name="afii10079" unicode="&#x43d;" horiz-adv-x="1131" 
 />
    <glyph glyph-name="afii10080" unicode="&#x43e;" 
 />
    <glyph glyph-name="afii10081" unicode="&#x43f;" horiz-adv-x="1109" 
 />
    <glyph glyph-name="afii10082" unicode="&#x440;" 
 />
    <glyph glyph-name="afii10083" unicode="&#x441;" horiz-adv-x="1024" 
 />
    <glyph glyph-name="afii10084" unicode="&#x442;" horiz-adv-x="938" 
 />
    <glyph glyph-name="afii10085" unicode="&#x443;" horiz-adv-x="1024" 
 />
    <glyph glyph-name="afii10086" unicode="&#x444;" horiz-adv-x="1685" 
 />
    <glyph glyph-name="afii10087" unicode="&#x445;" horiz-adv-x="1024" 
 />
    <glyph glyph-name="afii10088" unicode="&#x446;" horiz-adv-x="1173" 
 />
    <glyph glyph-name="afii10089" unicode="&#x447;" horiz-adv-x="1067" 
 />
    <glyph glyph-name="afii10090" unicode="&#x448;" horiz-adv-x="1643" 
 />
    <glyph glyph-name="afii10091" unicode="&#x449;" horiz-adv-x="1685" 
 />
    <glyph glyph-name="afii10092" unicode="&#x44a;" horiz-adv-x="1280" 
 />
    <glyph glyph-name="afii10093" unicode="&#x44b;" horiz-adv-x="1472" 
 />
    <glyph glyph-name="afii10094" unicode="&#x44c;" horiz-adv-x="1067" 
 />
    <glyph glyph-name="afii10095" unicode="&#x44d;" horiz-adv-x="1045" 
 />
    <glyph glyph-name="afii10096" unicode="&#x44e;" horiz-adv-x="1536" 
 />
    <glyph glyph-name="afii10097" unicode="&#x44f;" horiz-adv-x="1109" 
 />
    <glyph glyph-name="afii10071" unicode="&#x451;" 
 />
    <glyph glyph-name="afii10099" unicode="&#x452;" 
 />
    <glyph glyph-name="afii10100" unicode="&#x453;" horiz-adv-x="747" 
 />
    <glyph glyph-name="afii10101" unicode="&#x454;" horiz-adv-x="1045" 
 />
    <glyph glyph-name="afii10102" unicode="&#x455;" horiz-adv-x="1024" 
 />
    <glyph glyph-name="afii10103" unicode="&#x456;" horiz-adv-x="455" 
 />
    <glyph glyph-name="afii10104" unicode="&#x457;" horiz-adv-x="569" 
 />
    <glyph glyph-name="afii10105" unicode="&#x458;" horiz-adv-x="455" 
 />
    <glyph glyph-name="afii10106" unicode="&#x459;" horiz-adv-x="1856" 
 />
    <glyph glyph-name="afii10107" unicode="&#x45a;" horiz-adv-x="1664" 
 />
    <glyph glyph-name="afii10108" unicode="&#x45b;" 
 />
    <glyph glyph-name="afii10109" unicode="&#x45c;" horiz-adv-x="896" 
 />
    <glyph glyph-name="afii10110" unicode="&#x45e;" horiz-adv-x="1024" 
 />
    <glyph glyph-name="afii10193" unicode="&#x45f;" horiz-adv-x="1131" 
 />
    <glyph glyph-name="afii10050" unicode="&#x490;" horiz-adv-x="1001" 
 />
    <glyph glyph-name="afii10098" unicode="&#x491;" horiz-adv-x="842" 
 />
    <glyph glyph-name="Wgrave" unicode="&#x1e80;" horiz-adv-x="1933" 
 />
    <glyph glyph-name="wgrave" unicode="&#x1e81;" horiz-adv-x="1479" 
 />
    <glyph glyph-name="Wacute" unicode="&#x1e82;" horiz-adv-x="1933" 
 />
    <glyph glyph-name="wacute" unicode="&#x1e83;" horiz-adv-x="1479" 
 />
    <glyph glyph-name="Wdieresis" unicode="&#x1e84;" horiz-adv-x="1933" 
 />
    <glyph glyph-name="wdieresis" unicode="&#x1e85;" horiz-adv-x="1479" 
 />
    <glyph glyph-name="Ygrave" unicode="&#x1ef2;" horiz-adv-x="1366" 
 />
    <glyph glyph-name="ygrave" unicode="&#x1ef3;" horiz-adv-x="1024" 
 />
    <glyph glyph-name="afii00208" unicode="&#x2015;" horiz-adv-x="2048" 
 />
    <glyph glyph-name="underscoredbl" unicode="&#x2017;" horiz-adv-x="1131" 
 />
    <glyph glyph-name="quotereversed" unicode="&#x201b;" horiz-adv-x="455" 
 />
    <glyph glyph-name="minute" unicode="&#x2032;" horiz-adv-x="384" 
 />
    <glyph glyph-name="second" unicode="&#x2033;" horiz-adv-x="725" 
 />
    <glyph glyph-name="exclamdbl" unicode="&#x203c;" horiz-adv-x="1024" 
 />
    <glyph glyph-name="uni203E" unicode="&#x203e;" horiz-adv-x="682" 
 />
    <glyph glyph-name="uni207F" unicode="&#x207f;" horiz-adv-x="747" 
 />
    <glyph glyph-name="lira" unicode="&#x20a4;" 
 />
    <glyph glyph-name="peseta" unicode="&#x20a7;" horiz-adv-x="2240" 
 />
    <glyph glyph-name="afii61248" unicode="&#x2105;" horiz-adv-x="1813" 
 />
    <glyph glyph-name="afii61289" unicode="&#x2113;" horiz-adv-x="662" 
 />
    <glyph glyph-name="afii61352" unicode="&#x2116;" horiz-adv-x="2197" 
 />
    <glyph glyph-name="estimated" unicode="&#x212e;" horiz-adv-x="1229" 
 />
    <glyph glyph-name="oneeighth" unicode="&#x215b;" horiz-adv-x="1708" 
 />
    <glyph glyph-name="threeeighths" unicode="&#x215c;" horiz-adv-x="1708" 
 />
    <glyph glyph-name="fiveeighths" unicode="&#x215d;" horiz-adv-x="1708" 
 />
    <glyph glyph-name="seveneighths" unicode="&#x215e;" horiz-adv-x="1708" 
 />
    <glyph glyph-name="arrowleft" unicode="&#x2190;" horiz-adv-x="2048" 
 />
    <glyph glyph-name="arrowup" unicode="&#x2191;" horiz-adv-x="1024" 
 />
    <glyph glyph-name="arrowright" unicode="&#x2192;" horiz-adv-x="2048" 
 />
    <glyph glyph-name="arrowdown" unicode="&#x2193;" horiz-adv-x="1024" 
 />
    <glyph glyph-name="arrowboth" unicode="&#x2194;" horiz-adv-x="2048" 
 />
    <glyph glyph-name="arrowupdn" unicode="&#x2195;" horiz-adv-x="1024" 
 />
    <glyph glyph-name="arrowupdnbse" unicode="&#x21a8;" horiz-adv-x="1024" 
 />
    <glyph glyph-name="orthogonal" unicode="&#x221f;" horiz-adv-x="2005" 
 />
    <glyph glyph-name="intersection" unicode="&#x2229;" horiz-adv-x="1472" 
 />
    <glyph glyph-name="equivalence" unicode="&#x2261;" horiz-adv-x="1195" 
 />
    <glyph glyph-name="house" unicode="&#x2302;" horiz-adv-x="1237" 
 />
    <glyph glyph-name="revlogicalnot" unicode="&#x2310;" horiz-adv-x="1196" 
 />
    <glyph glyph-name="integraltp" unicode="&#x2320;" horiz-adv-x="1237" 
 />
    <glyph glyph-name="integralbt" unicode="&#x2321;" horiz-adv-x="1237" 
 />
    <glyph glyph-name="SF100000" unicode="&#x2500;" horiz-adv-x="1451" 
 />
    <glyph glyph-name="SF110000" unicode="&#x2502;" horiz-adv-x="1280" 
 />
    <glyph glyph-name="SF010000" unicode="&#x250c;" horiz-adv-x="1451" 
 />
    <glyph glyph-name="SF030000" unicode="&#x2510;" horiz-adv-x="1451" 
 />
    <glyph glyph-name="SF020000" unicode="&#x2514;" horiz-adv-x="1451" 
 />
    <glyph glyph-name="SF040000" unicode="&#x2518;" horiz-adv-x="1451" 
 />
    <glyph glyph-name="SF080000" unicode="&#x251c;" horiz-adv-x="1451" 
 />
    <glyph glyph-name="SF090000" unicode="&#x2524;" horiz-adv-x="1451" 
 />
    <glyph glyph-name="SF060000" unicode="&#x252c;" horiz-adv-x="1451" 
 />
    <glyph glyph-name="SF070000" unicode="&#x2534;" horiz-adv-x="1451" 
 />
    <glyph glyph-name="SF050000" unicode="&#x253c;" horiz-adv-x="1451" 
 />
    <glyph glyph-name="SF430000" unicode="&#x2550;" horiz-adv-x="1451" 
 />
    <glyph glyph-name="SF240000" unicode="&#x2551;" horiz-adv-x="1451" 
 />
    <glyph glyph-name="SF510000" unicode="&#x2552;" horiz-adv-x="1451" 
 />
    <glyph glyph-name="SF520000" unicode="&#x2553;" horiz-adv-x="1451" 
 />
    <glyph glyph-name="SF390000" unicode="&#x2554;" horiz-adv-x="1451" 
 />
    <glyph glyph-name="SF220000" unicode="&#x2555;" horiz-adv-x="1451" 
 />
    <glyph glyph-name="SF210000" unicode="&#x2556;" horiz-adv-x="1451" 
 />
    <glyph glyph-name="SF250000" unicode="&#x2557;" horiz-adv-x="1451" 
 />
    <glyph glyph-name="SF500000" unicode="&#x2558;" horiz-adv-x="1451" 
 />
    <glyph glyph-name="SF490000" unicode="&#x2559;" horiz-adv-x="1451" 
 />
    <glyph glyph-name="SF380000" unicode="&#x255a;" horiz-adv-x="1451" 
 />
    <glyph glyph-name="SF280000" unicode="&#x255b;" horiz-adv-x="1451" 
 />
    <glyph glyph-name="SF270000" unicode="&#x255c;" horiz-adv-x="1451" 
 />
    <glyph glyph-name="SF260000" unicode="&#x255d;" horiz-adv-x="1451" 
 />
    <glyph glyph-name="SF360000" unicode="&#x255e;" horiz-adv-x="1451" 
 />
    <glyph glyph-name="SF370000" unicode="&#x255f;" horiz-adv-x="1451" 
 />
    <glyph glyph-name="SF420000" unicode="&#x2560;" horiz-adv-x="1451" 
 />
    <glyph glyph-name="SF190000" unicode="&#x2561;" horiz-adv-x="1451" 
 />
    <glyph glyph-name="SF200000" unicode="&#x2562;" horiz-adv-x="1451" 
 />
    <glyph glyph-name="SF230000" unicode="&#x2563;" horiz-adv-x="1451" 
 />
    <glyph glyph-name="SF470000" unicode="&#x2564;" horiz-adv-x="1451" 
 />
    <glyph glyph-name="SF480000" unicode="&#x2565;" horiz-adv-x="1451" 
 />
    <glyph glyph-name="SF410000" unicode="&#x2566;" horiz-adv-x="1451" 
 />
    <glyph glyph-name="SF450000" unicode="&#x2567;" horiz-adv-x="1451" 
 />
    <glyph glyph-name="SF460000" unicode="&#x2568;" horiz-adv-x="1451" 
 />
    <glyph glyph-name="SF400000" unicode="&#x2569;" horiz-adv-x="1451" 
 />
    <glyph glyph-name="SF540000" unicode="&#x256a;" horiz-adv-x="1451" 
 />
    <glyph glyph-name="SF530000" unicode="&#x256b;" horiz-adv-x="1451" 
 />
    <glyph glyph-name="SF440000" unicode="&#x256c;" horiz-adv-x="1451" 
 />
    <glyph glyph-name="upblock" unicode="&#x2580;" horiz-adv-x="1451" 
 />
    <glyph glyph-name="dnblock" unicode="&#x2584;" horiz-adv-x="1451" 
 />
    <glyph glyph-name="block" unicode="&#x2588;" horiz-adv-x="1451" 
 />
    <glyph glyph-name="lfblock" unicode="&#x258c;" horiz-adv-x="1451" 
 />
    <glyph glyph-name="rtblock" unicode="&#x2590;" horiz-adv-x="1451" 
 />
    <glyph glyph-name="ltshade" unicode="&#x2591;" horiz-adv-x="1451" 
 />
    <glyph glyph-name="shade" unicode="&#x2592;" horiz-adv-x="1451" 
 />
    <glyph glyph-name="dkshade" unicode="&#x2593;" horiz-adv-x="1493" 
 />
    <glyph glyph-name="filledbox" unicode="&#x25a0;" horiz-adv-x="1237" 
 />
    <glyph glyph-name="H22073" unicode="&#x25a1;" horiz-adv-x="1237" 
 />
    <glyph glyph-name="H18543" unicode="&#x25aa;" horiz-adv-x="726" 
 />
    <glyph glyph-name="H18551" unicode="&#x25ab;" horiz-adv-x="726" 
 />
    <glyph glyph-name="filledrect" unicode="&#x25ac;" horiz-adv-x="2048" 
 />
    <glyph glyph-name="triagup" unicode="&#x25b2;" horiz-adv-x="2027" 
 />
    <glyph glyph-name="triagrt" unicode="&#x25ba;" horiz-adv-x="2027" 
 />
    <glyph glyph-name="triagdn" unicode="&#x25bc;" horiz-adv-x="2027" 
 />
    <glyph glyph-name="triaglf" unicode="&#x25c4;" horiz-adv-x="2027" 
 />
    <glyph glyph-name="circle" unicode="&#x25cb;" horiz-adv-x="1237" 
 />
    <glyph glyph-name="H18533" unicode="&#x25cf;" horiz-adv-x="1237" 
 />
    <glyph glyph-name="invbullet" unicode="&#x25d8;" horiz-adv-x="1237" 
 />
    <glyph glyph-name="invcircle" unicode="&#x25d9;" horiz-adv-x="1237" 
 />
    <glyph glyph-name="openbullet" unicode="&#x25e6;" horiz-adv-x="726" 
 />
    <glyph glyph-name="smileface" unicode="&#x263a;" horiz-adv-x="2091" 
 />
    <glyph glyph-name="invsmileface" unicode="&#x263b;" horiz-adv-x="2155" 
 />
    <glyph glyph-name="sun" unicode="&#x263c;" horiz-adv-x="1877" 
 />
    <glyph glyph-name="female" unicode="&#x2640;" horiz-adv-x="1536" 
 />
    <glyph glyph-name="male" unicode="&#x2642;" horiz-adv-x="1536" 
 />
    <glyph glyph-name="spade" unicode="&#x2660;" horiz-adv-x="1088" 
 />
    <glyph glyph-name="club" unicode="&#x2663;" horiz-adv-x="1344" 
 />
    <glyph glyph-name="heart" unicode="&#x2665;" horiz-adv-x="1216" 
 />
    <glyph glyph-name="diamond" unicode="&#x2666;" horiz-adv-x="1045" 
 />
    <glyph glyph-name="musicalnote" unicode="&#x266a;" horiz-adv-x="1024" 
 />
    <glyph glyph-name="musicalnotedbl" unicode="&#x266b;" horiz-adv-x="1536" 
 />
    <glyph glyph-name="uniF004" unicode="&#xf004;" horiz-adv-x="682" 
 />
    <glyph glyph-name="uniF005" unicode="&#xf005;" horiz-adv-x="682" 
 />
  </font>
</defs>
</svg>
